<?xml version="1.0" encoding="UTF-8"?>
<svg version="1.1" xmlns="http://www.w3.org/2000/svg" width="1024" height="1024">
<path d="M0 0 C0.43238247 7.0164592 -1.11523653 12.66981749 -3.24609375 19.32421875 C-3.57666275 20.388647 -3.90723175 21.45307526 -4.24781799 22.54975891 C-5.30046391 25.9324204 -6.36835444 29.31002125 -7.4375 32.6875 C-8.49999985 36.07657865 -9.55932075 39.46662493 -10.61647034 42.8573761 C-11.27376764 44.96206724 -11.93470571 47.06562568 -12.59971619 49.16789246 C-12.89995193 50.12271011 -13.20018768 51.07752777 -13.50952148 52.0612793 C-13.77377426 52.89652634 -14.03802704 53.73177338 -14.31028748 54.59233093 C-15.01305008 57.04555562 -15.53434628 59.49191776 -16 62 C-15.12190674 61.68885254 -14.24381348 61.37770508 -13.33911133 61.05712891 C-7.62246337 59.03258336 -1.90580221 57.00818433 3.81567383 54.99731445 C4.59042557 54.72499496 5.36517731 54.45267548 6.16340637 54.17210388 C7.75158305 53.61388453 9.33978938 53.05574955 10.92802429 52.49769592 C15.43629157 50.91107086 19.93717547 49.30591126 24.43070984 47.67803955 C26.42566732 46.95697814 28.42287492 46.24259278 30.42114258 45.53076172 C32.88364553 44.65251635 35.34205232 43.76267724 37.7956543 42.85986328 C48.20543164 39.18068186 48.20543164 39.18068186 54 41 C54.66 41.66 55.32 42.32 56 43 C55.69118798 48.58567916 54.46039906 52.97064987 52.25390625 58.14453125 C51.97136993 58.81524155 51.68883362 59.48595184 51.3977356 60.17698669 C50.46186859 62.39285676 49.51214545 64.60250418 48.5625 66.8125 C47.89389659 68.38920717 47.22635927 69.96636678 46.55981445 71.54394531 C45.13248835 74.91936591 43.70017628 78.29261055 42.26464844 81.66455078 C38.75550208 89.91810717 35.3062661 98.19678441 31.84915161 106.472229 C30.69327845 109.23618241 29.53452062 111.99890796 28.37475586 114.76123047 C25.1408464 122.46631901 21.91423536 130.17279533 18.77734375 137.91796875 C18.3181958 139.04493164 17.85904785 140.17189453 17.38598633 141.33300781 C16.57900705 143.31975486 15.7798978 145.30972818 14.9909668 147.30371094 C11.78200588 155.1826353 11.78200588 155.1826353 8 158 C5 158.5625 5 158.5625 2 158 C-2.65947026 153.65648402 -3.61876353 148.15076389 -5.0859375 142.1875 C-5.3513736 141.14102295 -5.61680969 140.0945459 -5.89028931 139.01635742 C-6.44616464 136.80906802 -6.99545582 134.60011135 -7.53857422 132.38964844 C-8.37333598 129.0067435 -9.23797119 125.63245172 -10.10546875 122.2578125 C-10.64244459 120.10982906 -11.17766116 117.9614049 -11.7109375 115.8125 C-12.10132706 114.29982544 -12.10132706 114.29982544 -12.49960327 112.7565918 C-12.84083725 111.33987183 -12.84083725 111.33987183 -13.18896484 109.89453125 C-13.49729752 108.65473511 -13.49729752 108.65473511 -13.81185913 107.38989258 C-14.04639051 104.4107163 -13.33333664 102.64760588 -12 100 C-10.44140625 98.62890625 -10.44140625 98.62890625 -8.5625 97.5625 C-7.86253906 97.15773438 -7.16257812 96.75296875 -6.44140625 96.3359375 C-5.63574219 95.89507812 -4.83007812 95.45421875 -4 95 C-3.01902344 94.45601563 -2.03804688 93.91203125 -1.02734375 93.3515625 C1.64028105 91.88522938 4.31585815 90.43581852 7 89 C7 87.68 7 86.36 7 85 C-0.63725087 87.71831186 -8.23320754 90.49847136 -15.6875 93.6875 C-16.66783203 94.05166016 -17.64816406 94.41582031 -18.65820312 94.79101562 C-27.95396256 98.88164787 -30.48163425 105.69348905 -34.04043579 114.6210022 C-35.31732341 117.78672348 -36.70601607 120.89766967 -38.09587097 124.01506042 C-39.13862868 126.35489548 -40.16908955 128.69974531 -41.1953125 131.046875 C-41.53336914 131.81966797 -41.87142578 132.59246094 -42.21972656 133.38867188 C-42.91559605 134.98356516 -43.60955979 136.5792911 -44.30175781 138.17578125 C-45.32460997 140.53167144 -46.35685058 142.88326112 -47.390625 145.234375 C-47.69486389 145.9426947 -47.99910278 146.6510144 -48.31256104 147.38079834 C-50.58657198 152.5246058 -52.99907496 156.63573293 -57.75 159.875 C-62.12195143 161.3883678 -64.49214098 161.0345906 -69 160 C-71.16418241 158.40020166 -71.90641553 157.56877848 -72.34680176 154.89224243 C-72.18188727 148.6244631 -71.50779754 142.57934887 -70.46875 136.3984375 C-70.31337769 135.435961 -70.15800537 134.4734845 -69.9979248 133.48184204 C-69.50596915 130.44497617 -69.00318383 127.41002344 -68.5 124.375 C-68.1620391 122.30089865 -67.8247928 120.22668074 -67.48828125 118.15234375 C-66.6671027 113.10017831 -65.83621516 108.04969748 -65 103 C-66.58675537 102.60385498 -66.58675537 102.60385498 -68.20556641 102.19970703 C-71.82469223 101.29587774 -75.44350941 100.39082012 -79.06213379 99.48498535 C-80.60608711 99.09858368 -82.15018659 98.71276602 -83.69433594 98.32714844 C-85.5898481 97.85082199 -87.48258777 97.36349687 -89.375 96.875 C-91.21191406 96.40707031 -91.21191406 96.40707031 -93.0859375 95.9296875 C-96 95 -96 95 -98 93 C-98.4375 90.625 -98.4375 90.625 -98 88 C-94.25653931 84.34347213 -90.28481222 82.84926502 -85.36328125 81.4140625 C-83.88453178 80.95387577 -82.40602292 80.49291527 -80.92773438 80.03125 C-78.61303395 79.32183878 -76.29659861 78.62028921 -73.9753418 77.93261719 C-71.72248193 77.26020688 -69.48061824 76.55814554 -67.23828125 75.8515625 C-66.54245438 75.65446686 -65.8466275 75.45737122 -65.12971497 75.25430298 C-62.91476293 74.60143482 -62.91476293 74.60143482 -60 73 C-58.49199413 70.35442357 -58.49199413 70.35442357 -58 67 C-57.8569191 66.33468262 -57.7138382 65.66936523 -57.56642151 64.98388672 C-57.07356347 62.65519605 -56.631655 60.32038249 -56.1953125 57.98046875 C-55.85586613 56.21802238 -55.51600945 54.45565499 -55.17578125 52.69335938 C-54.64913955 49.94281999 -54.12580172 47.19177724 -53.60986328 44.43920898 C-53.10644174 41.76349227 -52.5893043 39.09070303 -52.0703125 36.41796875 C-51.84820602 35.20345284 -51.84820602 35.20345284 -51.62161255 33.96440125 C-50.2144826 26.80270744 -48.45175041 19.4653275 -42.375 14.9375 C-35.6536685 10.93140838 -28.30865567 7.99794421 -21.12939453 4.92089844 C-17.41297993 3.31366204 -13.74239114 1.60720718 -10.06640625 -0.08984375 C-5.7879723 -1.97429575 -4.22168871 -1.93969481 0 0 Z M8 85 C9 88 9 88 9 88 Z " fill="#FE2D46" transform="translate(153,405)"/>
<path d="M0 0 C6.68932017 -0.10181508 13.37843887 -0.17163915 20.06835938 -0.21972656 C22.34187284 -0.23978317 24.6153351 -0.26703538 26.88867188 -0.30175781 C30.16549349 -0.35053712 33.44163025 -0.37302897 36.71875 -0.390625 C38.23172668 -0.42159271 38.23172668 -0.42159271 39.77526855 -0.45318604 C47.33004923 -0.45556265 52.81639503 0.98395319 58.375 6.25 C62.89829043 13.9047992 62.34114516 22.71540774 62.31567383 31.31811523 C62.3125023 33.56087373 62.33606979 35.80232466 62.36132812 38.04492188 C62.36360069 39.48958169 62.36430481 40.93424501 62.36328125 42.37890625 C62.36626221 43.6738501 62.36924316 44.96879395 62.37231445 46.30297852 C61.88751236 51.11698384 60.7445488 55.30027901 57.17578125 58.77734375 C55.45052083 59.8515625 53.72526042 60.92578125 52 62 C52.928125 62.5775 53.85625 63.155 54.8125 63.75 C58.25521901 66.18015459 60.42365961 67.9326544 61.56811523 72.0378418 C62.17307491 76.18706492 62.12246829 80.26975204 62.09765625 84.45703125 C62.0962413 85.35999435 62.09482635 86.26295746 62.09336853 87.19328308 C62.08778823 90.06638963 62.07523934 92.93941716 62.0625 95.8125 C62.05748245 97.76497283 62.05291999 99.71744689 62.04882812 101.66992188 C62.03782525 106.44664485 62.02057418 111.22330904 62 116 C59.20127394 116.93290869 57.48011055 117.12859447 54.5859375 117.1328125 C53.32136719 117.13474609 53.32136719 117.13474609 52.03125 117.13671875 C50.71640625 117.13091797 50.71640625 117.13091797 49.375 117.125 C48.49070312 117.12886719 47.60640625 117.13273438 46.6953125 117.13671875 C45.43460938 117.13478516 45.43460938 117.13478516 44.1484375 117.1328125 C43.37677246 117.13168457 42.60510742 117.13055664 41.81005859 117.12939453 C40 117 40 117 39 116 C38.924074 113.77593768 38.9169946 111.54948221 38.9375 109.32421875 C38.94128662 108.64382034 38.94507324 107.96342194 38.94897461 107.2624054 C38.9652662 104.34893316 38.99291459 101.43560087 39.02050781 98.5222168 C39.38360393 85.19359319 39.38360393 85.19359319 38 72 C35.16730334 70.58365167 32.52533562 70.6536995 29.375 70.4375 C27.59222656 70.31181641 27.59222656 70.31181641 25.7734375 70.18359375 C24.85820313 70.12300781 23.94296875 70.06242188 23 70 C23.00444122 70.5593222 23.00888245 71.11864441 23.01345825 71.69491577 C23.05761149 77.50198824 23.08783294 83.30901325 23.10986328 89.11621094 C23.11993789 91.28517594 23.13359798 93.45412731 23.15087891 95.62304688 C23.17506323 98.73571126 23.18646832 101.84819651 23.1953125 104.9609375 C23.20563507 105.934935 23.21595764 106.9089325 23.22659302 107.91244507 C23.22674408 108.81322784 23.22689514 109.71401062 23.22705078 110.64208984 C23.231492 111.43706879 23.23593323 112.23204773 23.24050903 113.05111694 C23 115 23 115 21 117 C18.95288086 117.24291992 18.95288086 117.24291992 16.46484375 117.23046875 C15.57345703 117.22853516 14.68207031 117.22660156 13.76367188 117.22460938 C12.83103516 117.21236328 11.89839844 117.20011719 10.9375 117.1875 C9.53274414 117.1865332 9.53274414 117.1865332 8.09960938 117.18554688 C1.14019224 117.14019224 1.14019224 117.14019224 0 116 C-0.09575309 114.49448826 -0.12188187 112.9844897 -0.12025452 111.47593689 C-0.12162918 110.49852036 -0.12300385 109.52110382 -0.12442017 108.5140686 C-0.12082489 107.43297821 -0.11722961 106.35188782 -0.11352539 105.23803711 C-0.11367142 104.1064769 -0.11381744 102.97491669 -0.1139679 101.80906677 C-0.11326819 98.04847329 -0.10547311 94.28792863 -0.09765625 90.52734375 C-0.09579227 87.92802457 -0.09436828 85.32870503 -0.09336853 82.72938538 C-0.08993341 76.57411423 -0.08204256 70.4188634 -0.07201904 64.26359993 C-0.06085694 57.25766654 -0.05534721 50.25173233 -0.05032361 43.24579227 C-0.03985992 28.83051867 -0.02226108 14.41525996 0 0 Z M23 16 C21.78922299 19.63233102 21.87555836 22.95121987 21.90234375 26.73046875 C21.9037587 27.48088943 21.90517365 28.23131012 21.90663147 29.00447083 C21.9122244 31.3988546 21.92477556 33.79314453 21.9375 36.1875 C21.94251592 37.81184761 21.94707866 39.43619668 21.95117188 41.06054688 C21.96219152 45.04040069 21.97945127 49.02018444 22 53 C24.08304538 53.05418326 26.16649768 53.09287551 28.25 53.125 C29.41015625 53.14820313 30.5703125 53.17140625 31.765625 53.1953125 C34.85216691 53.00892712 36.51148161 52.78936323 39 51 C40.75944009 45.72167974 40.18463933 40.08645495 40.1875 34.5625 C40.20586914 32.70141602 40.20586914 32.70141602 40.22460938 30.80273438 C40.22654297 29.61099609 40.22847656 28.41925781 40.23046875 27.19140625 C40.23457764 26.10029541 40.23868652 25.00918457 40.24291992 23.88500977 C40.0022024 21.02615653 39.57012126 19.3777421 38 17 C34.8636027 15.67466397 31.61483761 15.89744241 28.25 15.9375 C27.26515625 15.94652344 26.2803125 15.95554687 25.265625 15.96484375 C24.14414062 15.98224609 24.14414062 15.98224609 23 16 Z " fill="#FE2D45" transform="translate(621,445)"/>
<path d="M0 0 C0.75081345 -0.0066568 1.50162689 -0.0133136 2.27519226 -0.02017212 C3.85946211 -0.03026622 5.4437742 -0.03499015 7.02807617 -0.03466797 C9.43155353 -0.03903044 11.83317646 -0.07535101 14.23632812 -0.11328125 C28.72106031 -0.22082503 28.72106031 -0.22082503 35.13671875 4.3359375 C40.00868366 10.332202 40.28733264 15.25173467 40.29785156 22.74121094 C40.30529892 24.0102829 40.30529892 24.0102829 40.31289673 25.30499268 C40.32749166 28.10177426 40.33431638 30.8984991 40.33984375 33.6953125 C40.34559797 35.64341228 40.35135567 37.59151205 40.3571167 39.53961182 C40.3676195 43.62504337 40.37346669 47.71045529 40.37695312 51.79589844 C40.38243231 57.01898319 40.40645115 62.24180653 40.43492508 67.46480942 C40.45359313 71.49009955 40.45875931 75.51532728 40.460289 79.54065704 C40.46330731 81.46549151 40.47130796 83.39032508 40.48447418 85.31511688 C40.50161977 88.01463929 40.49963361 90.71353046 40.49316406 93.41308594 C40.50698624 94.59481384 40.50698624 94.59481384 40.52108765 95.80041504 C40.47338748 102.18706216 39.44605739 108.02659886 34.76171875 112.7109375 C26.74223578 117.67537934 18.49212132 117.51783022 9.32421875 117.5234375 C8.28201172 117.53568359 7.23980469 117.54792969 6.16601562 117.56054688 C-2.58959528 117.57703578 -10.95968123 117.27624449 -17.86328125 111.3359375 C-21.67964534 105.83680282 -22.4432686 101.89246595 -22.36499023 95.28295898 C-22.37039322 94.40399963 -22.3757962 93.52504028 -22.38136292 92.6194458 C-22.39380845 89.73162536 -22.37738838 86.84480996 -22.359375 83.95703125 C-22.35953007 81.94116667 -22.36102039 79.92530178 -22.36378479 77.90943909 C-22.36516687 73.69217693 -22.35264149 69.47525566 -22.32983398 65.25805664 C-22.30143186 59.85880349 -22.30419428 54.46011568 -22.3169241 49.06082058 C-22.32388606 44.9008961 -22.31608634 40.74110178 -22.30366707 36.58119392 C-22.2991589 34.59053103 -22.29881021 32.59985413 -22.30273247 30.60918999 C-22.3056502 27.82567672 -22.28911137 25.04293689 -22.26733398 22.25952148 C-22.27183563 21.44117325 -22.27633728 20.62282501 -22.28097534 19.77967834 C-22.21770381 14.90034022 -21.54239456 11.56917128 -18.86328125 7.3359375 C-12.87079695 1.60399599 -8.15894153 0.02540849 0 0 Z M1.13671875 18.3359375 C-0.3342875 21.27795001 -0.01064137 24.25090502 -0.00854492 27.47607422 C-0.01190353 28.21121246 -0.01526215 28.94635071 -0.01872253 29.70376587 C-0.02824399 32.1410693 -0.03017631 34.57830411 -0.03125 37.015625 C-0.03446201 38.70712309 -0.03782604 40.39862091 -0.04133606 42.09011841 C-0.0473305 45.63934981 -0.04917566 49.18855686 -0.04858398 52.73779297 C-0.0484824 57.28643565 -0.06212909 61.8349221 -0.07935619 66.38352776 C-0.09047401 69.87851682 -0.09250325 73.37346811 -0.09197426 76.86847305 C-0.09315492 78.54540673 -0.0975815 80.22234136 -0.10530663 81.89925766 C-0.11510111 84.24528694 -0.11223059 86.59097701 -0.10620117 88.93701172 C-0.11182068 89.63014465 -0.11744019 90.32327759 -0.12322998 91.03741455 C-0.09997092 94.59786562 -0.00938412 97.40677483 2.13671875 100.3359375 C4.85564439 101.24224605 6.75015862 101.55795328 9.57421875 101.6484375 C10.33605469 101.68582031 11.09789062 101.72320313 11.8828125 101.76171875 C15.12181933 101.14984398 16.12746828 99.93118555 18.13671875 97.3359375 C18.52149768 94.70262528 18.66471538 92.49016051 18.62255859 89.86108398 C18.62635529 89.11429382 18.63015198 88.36750366 18.63406372 87.5980835 C18.64146265 85.13396976 18.62009924 82.67103985 18.59765625 80.20703125 C18.59527154 78.49357746 18.59436656 76.78012102 18.59487915 75.06666565 C18.5917524 71.47795208 18.57519566 67.88963838 18.54833984 64.30102539 C18.51433446 59.69848861 18.50671206 55.09639063 18.50823021 50.49374294 C18.5076867 46.95672916 18.49672308 43.4198115 18.48222733 39.88282967 C18.47585879 38.18554474 18.4719203 36.48824891 18.47043991 34.79095268 C18.46610889 32.42091132 18.44861336 30.05133754 18.42724609 27.68139648 C18.42815247 26.97845963 18.42905884 26.27552277 18.42999268 25.55128479 C18.38208253 21.92159613 18.21017492 20.44612176 16.13671875 17.3359375 C10.90430017 15.59179797 6.04404311 15.73794225 1.13671875 18.3359375 Z " fill="#FE2D45" transform="translate(257.86328125,444.6640625)"/>
<path d="M0 0 C1.62254223 -0.01651195 3.24501314 -0.04373923 4.8671875 -0.08203125 C21.11429542 -0.46306876 21.11429542 -0.46306876 26.89770508 3.93383789 C33.04866728 10.33070626 33.40752497 17.84757454 33.4206543 26.32397461 C33.42810165 27.48866272 33.42810165 27.48866272 33.43569946 28.67687988 C33.45023456 31.2307221 33.45710832 33.78450222 33.46264648 36.33837891 C33.46688755 37.65373155 33.46688755 37.65373155 33.47121429 38.99565697 C33.48617144 43.63553542 33.49542302 48.27538304 33.49975586 52.9152832 C33.50523753 57.68982133 33.52926912 62.46407387 33.55772781 67.23852253 C33.57641839 70.92672024 33.58156319 74.61484999 33.58309174 78.30309105 C33.58610394 80.06242625 33.59408366 81.82176066 33.60727692 83.58104897 C33.73995838 102.63223704 33.73995838 102.63223704 28.50952148 111.22509766 C21.24863003 118.08260625 11.27718683 117.53162061 1.94702148 117.53759766 C0.95250977 117.54984375 -0.04200195 117.56208984 -1.06665039 117.57470703 C-8.84928197 117.59003723 -17.40592965 117.41773675 -23.74047852 112.35009766 C-28.47619366 106.16735844 -28.89181487 101.54184024 -28.91748047 93.94482422 C-28.92405167 93.09877625 -28.93062286 92.25272827 -28.93739319 91.38104248 C-28.95708521 88.58426824 -28.96877975 85.78754761 -28.97875977 82.99072266 C-28.98283529 82.03351067 -28.98691082 81.07629868 -28.99110985 80.09008026 C-29.01195326 75.02343462 -29.02626239 69.95681593 -29.03564453 64.89013672 C-29.04670453 59.666974 -29.0811048 54.4442378 -29.12081623 49.22122574 C-29.14700606 45.19593534 -29.15533848 41.17074622 -29.15892601 37.14537811 C-29.16378592 35.22052887 -29.17538289 33.29568397 -29.193964 31.37091827 C-29.21840566 28.67125469 -29.21738136 25.9726904 -29.21044922 23.27294922 C-29.22325928 22.48513062 -29.23606934 21.69731201 -29.24926758 20.88562012 C-29.19035463 14.55924981 -27.44519348 9.08971217 -22.92407227 4.51025391 C-22.34786133 4.14802734 -21.77165039 3.78580078 -21.17797852 3.41259766 C-20.30979492 2.8421875 -20.30979492 2.8421875 -19.42407227 2.26025391 C-13.6426959 -0.86517694 -6.41177855 0.04774797 0 0 Z M-6.74047852 20.35009766 C-7.13548795 22.97656391 -7.28843764 25.18503633 -7.25805664 27.80908203 C-7.26506592 28.5542659 -7.2720752 29.29944977 -7.27929688 30.06721497 C-7.29687893 32.52647341 -7.28525426 34.98457784 -7.27172852 37.44384766 C-7.27442339 39.15490947 -7.27830578 40.86596979 -7.2833252 42.57702637 C-7.2892205 46.1615254 -7.2806565 49.74562549 -7.26196289 53.33007812 C-7.23917303 57.92376205 -7.25229598 62.5165112 -7.27625275 67.11016083 C-7.29071003 70.64295489 -7.28610512 74.1755275 -7.27574158 77.70832825 C-7.27307408 79.4020041 -7.27634487 81.09570008 -7.28565979 82.78935242 C-7.29582464 85.15714742 -7.28032731 87.52343082 -7.25805664 89.89111328 C-7.26615356 90.59045486 -7.27425049 91.28979645 -7.28259277 92.0103302 C-7.22399999 95.37447163 -6.94133443 97.08938843 -4.8626709 99.78747559 C-2.26501561 101.7001926 -0.8735715 101.83113543 2.32202148 101.72509766 C3.17924805 101.71220703 4.03647461 101.69931641 4.91967773 101.68603516 C7.52654223 101.4832337 7.52654223 101.4832337 10.25952148 99.35009766 C11.68331359 95.81852578 11.39353671 92.03036419 11.40478516 88.27416992 C11.40814377 87.56960663 11.41150238 86.86504333 11.41496277 86.13912964 C11.42444547 83.81490303 11.42641444 81.49074865 11.42749023 79.16650391 C11.43070437 77.54752066 11.43406856 75.9285377 11.43757629 74.30955505 C11.44356063 70.91770759 11.44541688 67.52588558 11.44482422 64.1340332 C11.44472257 59.79180814 11.45838114 55.44974648 11.47559643 51.10756016 C11.48672399 47.76437126 11.4887432 44.4212218 11.48821449 41.07801628 C11.48939322 39.47726821 11.49380899 37.87651907 11.50154686 36.27578926 C11.5113633 34.03555015 11.50846245 31.79566494 11.50244141 29.55541992 C11.50386642 28.28175064 11.50529144 27.00808136 11.50675964 25.69581604 C11.26518468 22.42673408 10.84666162 20.20965199 9.25952148 17.35009766 C6.54059585 16.44378911 4.64608162 16.12808188 1.82202148 16.03759766 C0.67926758 15.98152344 0.67926758 15.98152344 -0.48657227 15.92431641 C-3.72464585 16.53601488 -4.73003658 17.75708816 -6.74047852 20.35009766 Z " fill="#FE2D46" transform="translate(556.740478515625,444.64990234375)"/>
<path d="M0 0 C6.83166516 -0.12724542 13.66302238 -0.21453763 20.49560547 -0.2746582 C22.81766175 -0.29973266 25.13963965 -0.33380092 27.46142578 -0.37719727 C30.80781441 -0.43815805 34.15315553 -0.46628149 37.5 -0.48828125 C39.04578735 -0.52699089 39.04578735 -0.52699089 40.62280273 -0.56648254 C47.23624548 -0.56903004 52.12861967 0.27654479 57 5 C61.09141842 10.36430109 61.58616068 15.7974579 61.49609375 22.35546875 C61.49754898 23.2201326 61.49900421 24.08479645 61.50050354 24.97566223 C61.49885394 26.79004309 61.48739889 28.60443932 61.46655273 30.41870117 C61.43746804 33.19054554 61.44598902 35.96048871 61.45898438 38.73242188 C61.45274965 40.50261342 61.44436079 42.27279897 61.43359375 44.04296875 C61.43652939 44.86701706 61.43946503 45.69106537 61.44248962 46.54008484 C61.3667037 51.16838163 61.00278095 54.24753146 58 58 C56.36504293 59.05104383 54.70116376 60.05988318 53 61 C52.505 61.99 52.505 61.99 52 63 C52.5775 63.226875 53.155 63.45375 53.75 63.6875 C57.56083774 65.91048868 59.61929664 68.85788992 61 73 C61.08610514 74.42718637 61.11771828 75.85806648 61.11352539 77.2878418 C61.11344986 78.14850754 61.11337433 79.00917328 61.11329651 79.8959198 C61.10813522 80.82100845 61.10297394 81.74609711 61.09765625 82.69921875 C61.0962413 83.64940384 61.09482635 84.59958893 61.09336853 85.5785675 C61.08776875 88.61491029 61.07521632 91.65117948 61.0625 94.6875 C61.05748497 96.74544164 61.05292207 98.80338444 61.04882812 100.86132812 C61.0377994 105.90758046 61.02053493 110.95377775 61 116 C58.22276075 116.78688445 55.77389923 117.11949924 52.890625 117.09765625 C52.13652344 117.09443359 51.38242187 117.09121094 50.60546875 117.08789062 C49.82816406 117.07951172 49.05085937 117.07113281 48.25 117.0625 C47.45722656 117.05798828 46.66445313 117.05347656 45.84765625 117.04882812 C43.89840492 117.03708565 41.94919262 117.01915146 40 117 C39.96241577 115.43487671 39.96241577 115.43487671 39.92407227 113.83813477 C39.82918628 109.92982804 39.72917119 106.02166585 39.62768555 102.11352539 C39.58464114 100.42898972 39.54294777 98.74441892 39.50268555 97.05981445 C39.44423571 94.62440446 39.38076577 92.18916642 39.31640625 89.75390625 C39.29969376 89.01290176 39.28298126 88.27189728 39.26576233 87.50843811 C39.65787181 78.66774995 39.65787181 78.66774995 37 71 C32.05 70.67 27.1 70.34 22 70 C22 85.18 22 100.36 22 116 C18.11436275 117.29521242 14.42199731 117.14503464 10.375 117.125 C9.58609375 117.12886719 8.7971875 117.13273438 7.984375 117.13671875 C2.12665394 117.12665394 2.12665394 117.12665394 1 116 C0.87451277 112.8726583 0.81385227 109.76636475 0.79467773 106.63769531 C0.78477814 105.65381332 0.77487854 104.66993134 0.76467896 103.65623474 C0.73291969 100.38022312 0.70822996 97.10419734 0.68359375 93.828125 C0.66301666 91.55140817 0.64201999 89.27469509 0.62062073 86.99798584 C0.56526253 80.97942273 0.51595508 74.96082396 0.46777344 68.94219971 C0.42776693 64.06293782 0.38369138 59.18371699 0.33933926 54.30449295 C-0.0402956 12.5375508 -0.0402956 12.5375508 0 0 Z M22 16 C22 28.21 22 40.42 22 53 C34.65947453 54.29430046 34.65947453 54.29430046 39 51 C40.45413494 46.00622898 40.18390111 40.844709 40.1875 35.6875 C40.20586914 34.31948242 40.20586914 34.31948242 40.22460938 32.92382812 C40.23672945 27.2879911 39.85284157 22.34923364 38 17 C33.4715658 15.31483984 33.4715658 15.31483984 22 16 Z " fill="#FE2E46" transform="translate(888,445)"/>
<path d="M0 0 C0.39421143 0.49346924 0.78842285 0.98693848 1.19458008 1.49536133 C1.91605225 1.17301514 2.63752441 0.85066895 3.38085938 0.51855469 C7.87492596 -1.11568679 12.26739223 -0.91383264 17.00708008 -0.94213867 C17.96678711 -0.97500977 18.92649414 -1.00788086 19.9152832 -1.04174805 C26.52047813 -1.09134337 31.18086649 0.02799366 36.19458008 4.49536133 C39.11339469 9.10897152 40.32156792 13.3971386 40.31483459 18.81072998 C40.31620926 19.6660582 40.31758392 20.52138641 40.31900024 21.40263367 C40.31360733 22.7976989 40.31360733 22.7976989 40.30810547 24.22094727 C40.3082515 25.206642 40.30839752 26.19233673 40.30854797 27.207901 C40.30785144 30.46520185 40.30007111 33.72244547 40.29223633 36.97973633 C40.29037123 39.23846404 40.28894776 41.49719215 40.28794861 43.75592041 C40.28413067 49.70055254 40.27430652 55.64516024 40.26324463 61.58978271 C40.25301498 67.65596181 40.24844765 73.72214485 40.2434082 79.78833008 C40.23268364 91.69068456 40.21561586 103.59302091 40.19458008 115.49536133 C37.86294172 116.66118051 36.47304526 116.62441742 33.87817383 116.62817383 C32.60876953 116.63010742 32.60876953 116.63010742 31.3137207 116.63208008 C30.4287793 116.62821289 29.54383789 116.6243457 28.63208008 116.62036133 C27.74327148 116.62422852 26.85446289 116.6280957 25.9387207 116.63208008 C25.09374023 116.63079102 24.24875977 116.62950195 23.37817383 116.62817383 C22.21112915 116.62648193 22.21112915 116.62648193 21.02050781 116.62475586 C19.19458008 116.49536133 19.19458008 116.49536133 18.19458008 115.49536133 C18.07459002 112.55411834 18.01909323 109.63531757 18.00512695 106.69287109 C17.99683365 105.76934845 17.98854034 104.84582581 17.97999573 103.89431763 C17.96255323 101.88194587 17.94739804 99.86955332 17.93421936 97.85714912 C17.91326307 94.67659714 17.88623454 91.49614956 17.85754395 88.31565857 C17.79773204 81.56309922 17.74563492 74.81049182 17.69458008 68.05786133 C17.63543539 60.23968199 17.57318457 52.42155398 17.50270081 44.60346794 C17.47604855 41.46251428 17.45527957 38.3215557 17.43469238 35.18055725 C17.41809374 33.26278435 17.40122229 31.34501379 17.3840332 29.42724609 C17.37984879 28.54768753 17.37566437 27.66812897 17.37135315 26.76191711 C17.44886725 22.49317803 17.44886725 22.49317803 16.19458008 18.49536133 C14.01942363 17.76317051 14.01942363 17.76317051 11.44458008 17.30786133 C10.58348633 17.12868164 9.72239258 16.94950195 8.83520508 16.76489258 C6.00474447 16.47598462 3.91379164 16.67294245 1.19458008 17.49536133 C-0.51836892 20.92125932 0.01338262 24.85494347 -0.01074219 28.62670898 C-0.02559158 30.04629158 -0.02559158 30.04629158 -0.04074097 31.49455261 C-0.07241014 34.63281729 -0.0971348 37.77109712 -0.12182617 40.90942383 C-0.14239102 43.08133342 -0.16338736 45.25323897 -0.18479919 47.42514038 C-0.24006831 53.14946218 -0.28945623 58.87382038 -0.33764648 64.59820557 C-0.38782621 70.43635306 -0.44353067 76.2744475 -0.4987793 82.11254883 C-0.60642007 93.57344275 -0.70734154 105.03438158 -0.80541992 116.49536133 C-7.40541992 116.49536133 -14.00541992 116.49536133 -20.80541992 116.49536133 C-23.05541992 109.74536133 -23.05541992 109.74536133 -23.04592896 105.55984497 C-23.04867828 104.61762589 -23.05142761 103.6754068 -23.05426025 102.70463562 C-23.0470697 101.6882753 -23.03987915 100.67191498 -23.0324707 99.62475586 C-23.03276276 98.54123337 -23.03305481 97.45771088 -23.03335571 96.34135437 C-23.03196558 92.77021192 -23.01641901 89.19927971 -23.00073242 85.62817383 C-22.99700117 83.14810297 -22.99415473 80.66803063 -22.99215698 78.18795776 C-22.98452936 71.66792718 -22.96488823 65.14798603 -22.94274902 58.62799072 C-22.92118807 51.97181892 -22.91315126 45.31562105 -22.90307617 38.65942383 C-22.88164162 25.60469822 -22.84790181 12.55003454 -22.80541992 -0.50463867 C-19.36931352 -0.75941296 -15.93184191 -0.9790287 -12.49291992 -1.19213867 C-11.02822266 -1.30138672 -11.02822266 -1.30138672 -9.53393555 -1.4128418 C-8.59614258 -1.46762695 -7.65834961 -1.52241211 -6.69213867 -1.57885742 C-5.39602661 -1.66526489 -5.39602661 -1.66526489 -4.07373047 -1.75341797 C-1.80541992 -1.50463867 -1.80541992 -1.50463867 0 0 Z " fill="#FE2E47" transform="translate(737.805419921875,445.504638671875)"/>
<path d="M0 0 C1.47704893 -0.01650334 2.95401986 -0.04371938 4.43066406 -0.08203125 C20.25784378 -0.48990255 20.25784378 -0.48990255 26.54125977 5.35009766 C30.8786984 9.68753629 31.65835234 15.51024778 31.73657227 21.40869141 C31.72343619 23.20176522 31.69981844 24.99478978 31.66625977 26.78759766 C31.65723633 27.70992188 31.64821289 28.63224609 31.63891602 29.58251953 C31.61553637 31.83865574 31.58276892 34.0942345 31.54125977 36.35009766 C28.0625122 36.5460021 24.58325073 36.73041358 21.10375977 36.91259766 C20.11053711 36.96867187 19.11731445 37.02474609 18.09399414 37.08251953 C17.14975586 37.13085938 16.20551758 37.17919922 15.23266602 37.22900391 C14.35811768 37.27613525 13.48356934 37.3232666 12.58251953 37.37182617 C10.54125977 37.35009766 10.54125977 37.35009766 9.54125977 36.35009766 C9.30424737 33.49131856 9.11906795 30.65126468 8.97875977 27.78759766 C8.93557617 26.98128906 8.89239258 26.17498047 8.84790039 25.34423828 C8.74150715 23.34640961 8.64085089 21.34827696 8.54125977 19.35009766 C4.5366628 17.06553683 2.04951268 17.26477751 -2.45874023 18.35009766 C-4.84550179 21.93023999 -4.74812799 24.486553 -4.73339844 28.61962891 C-4.73850937 29.35651947 -4.7436203 30.09341003 -4.74888611 30.85263062 C-4.76279078 33.28936881 -4.76182491 35.7258245 -4.75952148 38.16259766 C-4.76340755 39.85506292 -4.76774203 41.54752721 -4.77250671 43.23999023 C-4.77997051 46.78746706 -4.77967622 50.33484436 -4.77441406 53.88232422 C-4.768615 58.43225121 -4.78556001 62.98177172 -4.80875874 67.53163147 C-4.82347646 71.02659493 -4.82437054 74.52146001 -4.82124901 78.01644897 C-4.82176307 79.69421189 -4.82701674 81.3719802 -4.83706093 83.04971313 C-4.84937223 85.39360136 -4.84266659 87.73669135 -4.83105469 90.08056641 C-4.83869843 90.77572357 -4.84634216 91.47088074 -4.85421753 92.18710327 C-4.82332931 95.00216648 -4.75128682 96.91620357 -3.15422058 99.28491211 C-0.31097529 101.071181 2.28869279 100.64050542 5.54125977 100.35009766 C8.67498544 98.76001992 8.67498544 98.76001992 8.95776367 96.48657227 C8.97758301 95.74930908 8.99740234 95.0120459 9.01782227 94.25244141 C9.04875977 93.45128906 9.07969727 92.65013672 9.11157227 91.82470703 C9.12961914 90.98746094 9.14766602 90.15021484 9.16625977 89.28759766 C9.43701075 80.45434667 9.43701075 80.45434667 10.54125977 79.35009766 C12.02764969 79.19354738 13.52075104 79.09942823 15.01391602 79.03369141 C15.91303711 78.99179687 16.8121582 78.94990234 17.73852539 78.90673828 C18.68405273 78.86742187 19.62958008 78.82810547 20.60375977 78.78759766 C21.5531543 78.74441406 22.50254883 78.70123047 23.48071289 78.65673828 C25.8340733 78.5503049 28.18754331 78.44828757 30.54125977 78.35009766 C32.31963589 81.90684991 31.76873055 85.99532982 31.79125977 89.91259766 C31.81188477 90.78207031 31.83250977 91.65154297 31.85375977 92.54736328 C31.89307311 99.13726189 31.36369398 106.01860803 26.94262695 111.23706055 C20.21129027 117.80600942 11.54671758 117.67338892 2.66625977 117.60009766 C1.27213867 117.61169922 1.27213867 117.61169922 -0.15014648 117.62353516 C-14.96792977 117.58220243 -14.96792977 117.58220243 -20.89624023 113.79150391 C-29.06523939 103.96828242 -27.74787646 91.30077784 -27.68920898 79.18603516 C-27.68801374 77.54179928 -27.68756475 75.89756271 -27.68782043 74.25332642 C-27.68626572 70.82590389 -27.67805349 67.3985873 -27.66455078 63.97119141 C-27.6475357 59.59933326 -27.64373792 55.22759075 -27.64449596 50.85570335 C-27.64422286 47.46689775 -27.63871958 44.07811692 -27.63149452 40.68931961 C-27.62833514 39.07792981 -27.62634691 37.46653723 -27.62560081 35.8551445 C-27.60287463 12.44066128 -27.60287463 12.44066128 -22.45874023 5.35009766 C-15.27961719 -0.21738552 -8.69306107 0.07104213 0 0 Z " fill="#FE2C45" transform="translate(466.458740234375,444.64990234375)"/>
<path d="M0 0 C17.16 0 34.32 0 52 0 C52 5.61 52 11.22 52 17 C49.15326245 18.42336877 46.85384653 18.00758837 43.6796875 17.87890625 C42.54772949 17.83580322 41.41577148 17.7927002 40.24951172 17.74829102 C38.80592285 17.68697998 37.36233398 17.62566895 35.875 17.5625 C31.29625 17.376875 26.7175 17.19125 22 17 C22 27.56 22 38.12 22 49 C29.59 49 37.18 49 45 49 C46 55 46 55 46 67 C38.08 67 30.16 67 22 67 C22 77.89 22 88.78 22 100 C29.92 99.505 29.92 99.505 38 99 C47.99202128 98.83206687 47.99202128 98.83206687 51 99 C52 100 52 100 52.09765625 103.59765625 C52.0909822 105.08596867 52.07902183 106.57426432 52.0625 108.0625 C52.05798828 108.82111328 52.05347656 109.57972656 52.04882812 110.36132812 C52.0370068 112.24091871 52.01907078 114.12046899 52 116 C49.56762005 117.21618998 48.00860217 117.12688905 45.29077148 117.12939453 C44.31313339 117.13254669 43.3354953 117.13569885 42.32823181 117.13894653 C41.26987625 117.1369223 40.21152069 117.13489807 39.12109375 117.1328125 C38.03868912 117.13376923 36.95628448 117.13472595 35.84107971 117.13571167 C33.55038393 117.13639298 31.25968623 117.13454211 28.96899414 117.13037109 C25.44868672 117.12501701 21.92850659 117.13032044 18.40820312 117.13671875 C16.18749972 117.13605806 13.96679639 117.13477709 11.74609375 117.1328125 C10.15552406 117.13584885 10.15552406 117.13584885 8.53282166 117.13894653 C7.55833572 117.13579437 6.58384979 117.13264221 5.57983398 117.12939453 C4.71760727 117.12859894 3.85538055 117.12780334 2.96702576 117.12698364 C1 117 1 117 0 116 C-0.09575309 114.49448826 -0.12188187 112.9844897 -0.12025452 111.47593689 C-0.12162918 110.49852036 -0.12300385 109.52110382 -0.12442017 108.5140686 C-0.12082489 107.43297821 -0.11722961 106.35188782 -0.11352539 105.23803711 C-0.11367142 104.1064769 -0.11381744 102.97491669 -0.1139679 101.80906677 C-0.11326819 98.04847329 -0.10547311 94.28792863 -0.09765625 90.52734375 C-0.09579227 87.92802457 -0.09436828 85.32870503 -0.09336853 82.72938538 C-0.08993341 76.57411423 -0.08204256 70.4188634 -0.07201904 64.26359993 C-0.05976279 56.57091897 -0.0542752 48.87823516 -0.04882812 41.18554688 C-0.03907712 27.45701747 -0.01904682 13.72852665 0 0 Z " fill="#FE2E46" transform="translate(810,445)"/>
<path d="M0 0 C1.04590805 0.0199855 2.0918161 0.03997101 3.16941833 0.06056213 C4.35056717 0.08065842 5.531716 0.1007547 6.74865723 0.12145996 C8.03404892 0.14849503 9.31944061 0.17553009 10.64378357 0.2033844 C11.95193527 0.22699539 13.26008698 0.25060638 14.60787964 0.27493286 C18.09158255 0.33786801 21.57513913 0.40690765 25.05870056 0.47718811 C28.61108212 0.54778666 32.16356771 0.61265428 35.71604919 0.67799377 C42.69077167 0.80712753 49.66535639 0.94270587 56.63987732 1.08229065 C57.91662216 3.63578034 57.77266741 5.48111579 57.76487732 8.33229065 C57.76874451 9.73221252 57.76874451 9.73221252 57.77268982 11.16041565 C57.63987732 14.08229065 57.63987732 14.08229065 56.63987732 20.08229065 C50.69987732 20.08229065 44.75987732 20.08229065 38.63987732 20.08229065 C38.63987732 52.09229065 38.63987732 84.10229065 38.63987732 117.08229065 C35.49296957 117.86901759 33.44611522 118.20233521 30.31175232 118.1799469 C29.51253357 118.17672424 28.71331482 118.17350159 27.88987732 118.17018127 C27.06487732 118.16180237 26.23987732 118.15342346 25.38987732 118.14479065 C24.54940857 118.14027893 23.70893982 118.13576721 22.84300232 118.13111877 C20.7752633 118.11937026 18.70756108 118.10143587 16.63987732 118.08229065 C15.0671705 114.936877 15.50153635 111.57232374 15.51048279 108.11940002 C15.50873047 107.29636383 15.50697815 106.47332764 15.50517273 105.62535095 C15.50075642 102.89222632 15.50369359 100.15916599 15.50706482 97.42604065 C15.5063912 95.52471403 15.50542069 93.62338749 15.50416565 91.72206116 C15.50268856 87.7272205 15.5048417 83.73240215 15.50950623 79.73756409 C15.5151726 74.63802539 15.51194432 69.53853969 15.50593376 64.43900299 C15.50230197 60.50627756 15.50347925 56.57356445 15.50606155 52.64083862 C15.50672521 50.76232904 15.50592218 48.8838183 15.503582 47.00531006 C15.48601755 28.92358355 15.48601755 28.92358355 16.63987732 20.08229065 C10.03987732 20.08229065 3.43987732 20.08229065 -3.36012268 20.08229065 C-3.39106018 15.41072815 -3.39106018 15.41072815 -3.42262268 10.64479065 C-3.43172668 9.66196106 -3.44083069 8.67913147 -3.45021057 7.66651917 C-3.45270813 6.89751282 -3.45520569 6.12850647 -3.45777893 5.3361969 C-3.46563416 4.15005798 -3.46563416 4.15005798 -3.47364807 2.93995667 C-3.30004358 0.09918982 -2.84473179 0.09918757 0 0 Z " fill="#FE2D46" transform="translate(321.36012268066406,443.91770935058594)"/>
<path d="M0 0 C2 2 2 2 2.09521484 3.8972168 C1.27419138 11.3846106 -0.45408593 18.53763328 -2.375 25.8125 C-2.67921875 27.01326172 -2.9834375 28.21402344 -3.296875 29.45117188 C-3.59851563 30.60810547 -3.90015625 31.76503906 -4.2109375 32.95703125 C-4.48212402 33.99835205 -4.75331055 35.03967285 -5.03271484 36.11254883 C-6.64225892 40.91721257 -7.66199565 43.31810485 -12.30639648 45.68505859 C-13.65455685 46.19117829 -15.01007316 46.67799466 -16.37109375 47.1484375 C-17.44920067 47.54091171 -17.44920067 47.54091171 -18.54908752 47.9413147 C-20.06499718 48.48885132 -21.58397846 49.02794856 -23.10571289 49.55908203 C-25.43351241 50.3736047 -27.74894363 51.2176564 -30.06445312 52.06640625 C-31.54102894 52.59553302 -33.01822374 53.1229363 -34.49609375 53.6484375 C-35.18787216 53.90039886 -35.87965057 54.15236023 -36.59239197 54.41195679 C-42.54135049 56.46155656 -42.54135049 56.46155656 -46 55 C-45.35374727 47.03816638 -43.61114028 39.49295459 -41.6875 31.75 C-41.39166016 30.49703125 -41.09582031 29.2440625 -40.79101562 27.953125 C-40.49259766 26.7465625 -40.19417969 25.54 -39.88671875 24.296875 C-39.62076904 23.20729492 -39.35481934 22.11771484 -39.08081055 20.99511719 C-37.48294349 16.56714497 -35.47334539 13.88339328 -31.42211914 11.4543457 C-30.46942139 11.03241943 -29.51672363 10.61049316 -28.53515625 10.17578125 C-27.48779297 9.70462891 -26.44042969 9.23347656 -25.36132812 8.74804688 C-23.7284082 8.03745117 -23.7284082 8.03745117 -22.0625 7.3125 C-20.97775391 6.82716797 -19.89300781 6.34183594 -18.77539062 5.84179688 C-4.5594313 -0.49291149 -4.5594313 -0.49291149 0 0 Z " fill="#FE2D45" transform="translate(202,398)"/>
<path d="M0 0 C17.16 0 34.32 0 52 0 C52 5.61 52 11.22 52 17 C49.15326245 18.42336877 46.85384653 18.00758837 43.6796875 17.87890625 C42.54772949 17.83580322 41.41577148 17.7927002 40.24951172 17.74829102 C38.80592285 17.68697998 37.36233398 17.62566895 35.875 17.5625 C31.29625 17.376875 26.7175 17.19125 22 17 C22 27.56 22 38.12 22 49 C29.59 49 37.18 49 45 49 C44.67 50.32 44.34 51.64 44 53 C43.67 52.67 43.34 52.34 43 52 C41.37877577 51.85492735 39.75180111 51.7728999 38.125 51.71875 C37.14015625 51.68136719 36.1553125 51.64398438 35.140625 51.60546875 C34.10421875 51.57066406 33.0678125 51.53585937 32 51.5 C29.95818268 51.43143151 27.91649815 51.35874142 25.875 51.28125 C24.96492187 51.25095703 24.05484375 51.22066406 23.1171875 51.18945312 C21 51 21 51 20 50 C19.88677566 47.57509629 19.83583125 45.17973138 19.83203125 42.75390625 C19.82870285 42.02759506 19.82537445 41.30128387 19.82194519 40.55296326 C19.81687325 39.01374954 19.81453695 37.4745248 19.81469727 35.93530273 C19.81251234 33.57582529 19.79436435 31.21681639 19.77539062 28.85742188 C19.77245648 27.36458494 19.77047183 25.87174577 19.76953125 24.37890625 C19.76234573 23.67053116 19.75516022 22.96215607 19.74775696 22.23231506 C19.77117663 17.22882337 19.77117663 17.22882337 22 15 C24.79736328 14.77294922 24.79736328 14.77294922 28.3203125 14.8046875 C30.20556641 14.81435547 30.20556641 14.81435547 32.12890625 14.82421875 C34.10697266 14.84935547 34.10697266 14.84935547 36.125 14.875 C37.46483721 14.88503017 38.80468152 14.89415596 40.14453125 14.90234375 C43.42976376 14.92597852 46.71490398 14.9618505 50 15 C50 10.71 50 6.42 50 2 C34.16 2 18.32 2 2 2 C2 38.96 2 75.92 2 114 C17.84 114 33.68 114 50 114 C50 109.71 50 105.42 50 101 C49.01 101.33 48.02 101.66 47 102 C42.81666742 102.25888415 38.62798897 102.23134451 34.4375 102.25 C32.69436523 102.2809375 32.69436523 102.2809375 30.91601562 102.3125 C29.2540918 102.32023438 29.2540918 102.32023438 27.55859375 102.328125 C26.54079834 102.3374707 25.52300293 102.34681641 24.47436523 102.35644531 C23.65782471 102.23881836 22.84128418 102.12119141 22 102 C19.504216 98.256324 19.74206215 96.24879488 19.734375 91.77734375 C19.73246155 91.0760585 19.7305481 90.37477325 19.72857666 89.65223694 C19.72721733 88.17204428 19.73089618 86.69183959 19.73925781 85.21166992 C19.74997745 82.94227456 19.7393463 80.67366789 19.7265625 78.40429688 C19.72788383 76.96614408 19.73044566 75.52799178 19.734375 74.08984375 C19.73663086 72.77878662 19.73888672 71.46772949 19.74121094 70.11694336 C20 67 20 67 22 65 C23.83178711 64.75708008 23.83178711 64.75708008 26.02734375 64.76953125 C26.81947266 64.77146484 27.61160156 64.77339844 28.42773438 64.77539062 C29.25595703 64.78763672 30.08417969 64.79988281 30.9375 64.8125 C31.76185547 64.81314453 32.58621094 64.81378906 33.43554688 64.81445312 C36.94488444 64.84011035 39.63955301 64.879851 43 66 C43 62.7 43 59.4 43 56 C46 60 46 60 46 67 C38.08 67 30.16 67 22 67 C22 77.89 22 88.78 22 100 C29.92 99.505 29.92 99.505 38 99 C47.99202128 98.83206687 47.99202128 98.83206687 51 99 C52 100 52 100 52.09765625 103.59765625 C52.0909822 105.08596867 52.07902183 106.57426432 52.0625 108.0625 C52.05798828 108.82111328 52.05347656 109.57972656 52.04882812 110.36132812 C52.0370068 112.24091871 52.01907078 114.12046899 52 116 C49.56762005 117.21618998 48.00860217 117.12688905 45.29077148 117.12939453 C44.31313339 117.13254669 43.3354953 117.13569885 42.32823181 117.13894653 C41.26987625 117.1369223 40.21152069 117.13489807 39.12109375 117.1328125 C38.03868912 117.13376923 36.95628448 117.13472595 35.84107971 117.13571167 C33.55038393 117.13639298 31.25968623 117.13454211 28.96899414 117.13037109 C25.44868672 117.12501701 21.92850659 117.13032044 18.40820312 117.13671875 C16.18749972 117.13605806 13.96679639 117.13477709 11.74609375 117.1328125 C10.15552406 117.13584885 10.15552406 117.13584885 8.53282166 117.13894653 C7.55833572 117.13579437 6.58384979 117.13264221 5.57983398 117.12939453 C4.71760727 117.12859894 3.85538055 117.12780334 2.96702576 117.12698364 C1 117 1 117 0 116 C-0.09575309 114.49448826 -0.12188187 112.9844897 -0.12025452 111.47593689 C-0.12162918 110.49852036 -0.12300385 109.52110382 -0.12442017 108.5140686 C-0.12082489 107.43297821 -0.11722961 106.35188782 -0.11352539 105.23803711 C-0.11367142 104.1064769 -0.11381744 102.97491669 -0.1139679 101.80906677 C-0.11326819 98.04847329 -0.10547311 94.28792863 -0.09765625 90.52734375 C-0.09579227 87.92802457 -0.09436828 85.32870503 -0.09336853 82.72938538 C-0.08993341 76.57411423 -0.08204256 70.4188634 -0.07201904 64.26359993 C-0.05976279 56.57091897 -0.0542752 48.87823516 -0.04882812 41.18554688 C-0.03907712 27.45701747 -0.01904682 13.72852665 0 0 Z " fill="#FD2237" transform="translate(810,445)"/>
<path d="M0 0 C5.87157893 -0.02477942 11.74312718 -0.04289766 17.61474609 -0.05493164 C19.61084524 -0.05995022 21.60694073 -0.06676651 23.60302734 -0.07543945 C26.47754826 -0.08761356 29.35202044 -0.09325316 32.2265625 -0.09765625 C33.55815903 -0.10539818 33.55815903 -0.10539818 34.91665649 -0.11329651 C39.39600242 -0.11369908 43.59071138 0.0884947 48 1 C48 1.33 48 1.66 48 2 C33.15 2 18.3 2 3 2 C3 38.96 3 75.92 3 114 C8.61 114 14.22 114 20 114 C20 98.49 20 82.98 20 67 C24.95 67.33 29.9 67.66 35 68 C35 68.33 35 68.66 35 69 C30.71 69 26.42 69 22 69 C22 84.51 22 100.02 22 116 C18.11436275 117.29521242 14.42199731 117.14503464 10.375 117.125 C9.58609375 117.12886719 8.7971875 117.13273438 7.984375 117.13671875 C2.12665394 117.12665394 2.12665394 117.12665394 1 116 C0.87451277 112.8726583 0.81385227 109.76636475 0.79467773 106.63769531 C0.78477814 105.65381332 0.77487854 104.66993134 0.76467896 103.65623474 C0.73291969 100.38022312 0.70822996 97.10419734 0.68359375 93.828125 C0.66301666 91.55140817 0.64201999 89.27469509 0.62062073 86.99798584 C0.56526253 80.97942273 0.51595508 74.96082396 0.46777344 68.94219971 C0.42776693 64.06293782 0.38369138 59.18371699 0.33933926 54.30449295 C-0.0402956 12.5375508 -0.0402956 12.5375508 0 0 Z " fill="#FD1E31" transform="translate(888,445)"/>
<path d="M0 0 C0.66 0 1.32 0 2 0 C2 37.29 2 74.58 2 113 C10.415 112.505 10.415 112.505 19 112 C18.99476318 109.55376221 18.98952637 107.10752441 18.98413086 104.5871582 C18.96748332 96.46077316 18.95648432 88.33438733 18.94818783 80.20798969 C18.94299246 75.2860301 18.93595632 70.36408813 18.92456055 65.44213867 C18.91361183 60.68292762 18.90769803 55.92373341 18.90512276 51.16451073 C18.90328994 49.35825524 18.89971141 47.55200056 18.89426994 45.74575233 C18.86545028 35.77322636 19.01019289 25.93321346 20 16 C20.33 16 20.66 16 21 16 C21 49 21 82 21 116 C14.4 116 7.8 116 1 116 C-0.68923315 110.93230055 -1.24912821 108.31043475 -1.24291992 103.20483398 C-1.24479561 102.55074838 -1.2466713 101.89666277 -1.24860382 101.22275639 C-1.25224251 99.06374801 -1.24153772 96.90507287 -1.23046875 94.74609375 C-1.22961165 93.2168378 -1.22953076 91.68758125 -1.23017883 90.1583252 C-1.22903192 86.08873665 -1.21475452 82.01929613 -1.19723511 77.94974899 C-1.18751685 75.44184879 -1.18167576 72.93397068 -1.17724609 70.42605591 C-1.13554351 46.94184637 -0.96256499 23.46764158 0 0 Z " fill="#FD2136" transform="translate(716,446)"/>
<path d="M0 0 C0.66 0.33 1.32 0.66 2 1 C2 34.33 2 67.66 2 102 C-0.33163836 103.16581918 -1.72153482 103.12905609 -4.31640625 103.1328125 C-5.58581055 103.13474609 -5.58581055 103.13474609 -6.88085938 103.13671875 C-7.76580078 103.13285156 -8.65074219 103.12898437 -9.5625 103.125 C-10.45130859 103.12886719 -11.34011719 103.13273438 -12.25585938 103.13671875 C-13.10083984 103.13542969 -13.94582031 103.13414062 -14.81640625 103.1328125 C-15.98345093 103.13112061 -15.98345093 103.13112061 -17.17407227 103.12939453 C-19 103 -19 103 -20 102 C-20.0952822 99.01701786 -20.12552175 96.05723655 -20.11352539 93.07397461 C-20.11367142 92.13748581 -20.11381744 91.20099701 -20.1139679 90.23612976 C-20.11326837 87.12484461 -20.10547415 84.01361851 -20.09765625 80.90234375 C-20.09579221 78.75142957 -20.09436824 76.60051497 -20.09336853 74.44960022 C-20.08954225 68.77618242 -20.07971102 63.10279005 -20.06866455 57.42938232 C-20.0584528 51.64498234 -20.05387142 45.86057827 -20.04882812 40.07617188 C-20.03808885 28.71743672 -20.02101111 17.35872047 -20 6 C-19.01 6.495 -19.01 6.495 -18 7 C-18 37.69 -18 68.38 -18 100 C-12.06 100 -6.12 100 0 100 C0 67 0 34 0 0 Z " fill="#FD273C" transform="translate(776,459)"/>
<path d="M0 0 C0.6084375 0.19464844 1.216875 0.38929688 1.84375 0.58984375 C1.28945313 0.9765625 0.73515625 1.36328125 0.1640625 1.76171875 C-0.92261719 2.54289062 -0.92261719 2.54289062 -2.03125 3.33984375 C-2.75054688 3.8503125 -3.46984375 4.36078125 -4.2109375 4.88671875 C-7.579015 7.83547736 -8.11006121 9.92477109 -8.42367554 14.44050598 C-8.44163414 16.0251143 -8.44853715 17.60987098 -8.44677734 19.19458008 C-8.45349457 20.06174149 -8.46021179 20.92890289 -8.46713257 21.82234192 C-8.48612905 24.68891126 -8.49003776 27.55524663 -8.4921875 30.421875 C-8.49861485 32.41721187 -8.50534317 34.4125478 -8.51235962 36.40788269 C-8.52433692 40.59168685 -8.52804003 44.77540842 -8.52685547 48.95922852 C-8.52665239 54.31255287 -8.55394148 59.66534572 -8.58839989 65.0185442 C-8.61067183 69.14074623 -8.6146929 73.26282049 -8.61363602 77.38507652 C-8.61599203 79.35819008 -8.62481555 81.33130715 -8.64030075 83.30436134 C-8.65996421 86.06892372 -8.65412107 88.83234182 -8.64208984 91.59692383 C-8.65332886 92.40703918 -8.66456787 93.21715454 -8.67614746 94.05181885 C-8.61419688 99.67247699 -7.42839545 102.98396435 -4.15625 107.58984375 C0.80183268 110.5168686 5.36030469 111.03632989 11.0078125 110.98828125 C11.76291107 110.99115143 12.51800964 110.99402161 13.29598999 110.99697876 C14.88092811 110.99900755 16.46589195 110.99356117 18.05078125 110.98095703 C20.46931986 110.96483995 22.88619912 110.98086794 25.3046875 111 C26.85156616 110.99801823 28.3984438 110.99417593 29.9453125 110.98828125 C30.66312897 110.99435394 31.38094543 111.00042664 32.12051392 111.00668335 C36.5792667 110.94447189 39.1971896 110.11361442 42.84375 107.58984375 C43.50375 107.58984375 44.16375 107.58984375 44.84375 107.58984375 C43.84375 110.58984375 43.84375 110.58984375 40.65625 112.21484375 C33.89589824 115.05327586 26.72935312 114.77273254 19.53125 114.77734375 C18.53673828 114.78958984 17.54222656 114.80183594 16.51757812 114.81445312 C8.73494655 114.82978333 0.17829887 114.65748285 -6.15625 109.58984375 C-10.89196514 103.40710453 -11.30758636 98.78158633 -11.33325195 91.18457031 C-11.33982315 90.33852234 -11.34639435 89.49247437 -11.35316467 88.62078857 C-11.3728567 85.82401434 -11.38455123 83.0272937 -11.39453125 80.23046875 C-11.39860678 79.27325676 -11.4026823 78.31604477 -11.40688133 77.32982635 C-11.42772474 72.26318072 -11.44203387 67.19656202 -11.45141602 62.12988281 C-11.46247602 56.90672009 -11.49687628 51.68398389 -11.53658772 46.46097183 C-11.56277755 42.43568143 -11.57110997 38.41049231 -11.57469749 34.38512421 C-11.57955741 32.46027496 -11.59115437 30.53543006 -11.60973549 28.61066437 C-11.63417714 25.91100079 -11.63315284 23.21243649 -11.6262207 20.51269531 C-11.63903076 19.72487671 -11.65184082 18.93705811 -11.66503906 18.12536621 C-11.60082129 11.22933627 -9.49056194 5.98251348 -4.65625 1.02734375 C-2.15625 -0.41015625 -2.15625 -0.41015625 0 0 Z " fill="#FD2338" transform="translate(539.15625,447.41015625)"/>
<path d="M0 0 C1.02814316 0.00222061 2.05628632 0.00444122 3.11558533 0.00672913 C4.85727745 0.00684242 4.85727745 0.00684242 6.63415527 0.00695801 C8.52943214 0.01469994 8.52943214 0.01469994 10.46299744 0.02259827 C12.39193092 0.02472069 12.39193092 0.02472069 14.35983276 0.02688599 C17.78427561 0.03071034 21.20867628 0.0405399 24.63310242 0.05158997 C28.12522308 0.06180587 31.61735053 0.06638399 35.10948181 0.07142639 C41.96561897 0.08216225 48.82172806 0.09923767 55.67784119 0.12025452 C56.95458603 2.67374421 56.81063128 4.51907965 56.80284119 7.37025452 C56.80670837 8.77017639 56.80670837 8.77017639 56.81065369 10.19837952 C56.67784119 13.12025452 56.67784119 13.12025452 55.67784119 19.12025452 C49.40784119 19.12025452 43.13784119 19.12025452 36.67784119 19.12025452 C36.67784119 49.48025452 36.67784119 79.84025452 36.67784119 111.12025452 C36.34784119 111.12025452 36.01784119 111.12025452 35.67784119 111.12025452 C35.65471941 99.01183508 35.63692695 86.90342085 35.62602901 74.79498386 C35.62079982 69.1731749 35.61370153 63.55138099 35.60240173 57.92958069 C35.59157413 52.50907174 35.58556462 47.08857732 35.58296394 41.6680584 C35.58110946 39.59510507 35.57748842 37.52215258 35.57211113 35.4492054 C35.56490238 32.55641559 35.56385017 29.66368656 35.5643158 26.77088928 C35.56072052 25.90486588 35.55712524 25.03884247 35.55342102 24.14657593 C35.56378903 18.23430668 35.56378903 18.23430668 36.67784119 17.12025452 C39.54051686 17.04700284 42.37856018 17.02787247 45.24034119 17.05775452 C46.04664978 17.06226624 46.85295837 17.06677795 47.68370056 17.07142639 C49.68177875 17.08324934 51.67981902 17.10118538 53.67784119 17.12025452 C53.67784119 12.17025452 53.67784119 7.22025452 53.67784119 2.12025452 C35.19784119 2.12025452 16.71784119 2.12025452 -2.32215881 2.12025452 C-2.32215881 7.40025452 -2.32215881 12.68025452 -2.32215881 18.12025452 C-2.65215881 18.12025452 -2.98215881 18.12025452 -3.32215881 18.12025452 C-3.34900194 15.3076917 -3.36892069 12.49538211 -3.38465881 9.68275452 C-3.39303772 8.88031311 -3.40141663 8.0778717 -3.41004944 7.25111389 C-3.41867312 5.20730231 -3.37444031 3.1634155 -3.32215881 1.12025452 C-2.32215881 0.12025452 -2.32215881 0.12025452 0 0 Z " fill="#FD1C30" transform="translate(322.32215881347656,444.87974548339844)"/>
<path d="M0 0 C0.45279831 3.1655633 0.32398165 6.36830369 0.3125 9.5625 C0.32861328 10.43197266 0.34472656 11.30144531 0.36132812 12.19726562 C0.36622948 18.76997887 -0.19226424 25.68535364 -4.59838867 30.88696289 C-11.33040624 37.45556691 -19.99409959 37.32329491 -28.875 37.25 C-30.26912109 37.26160156 -30.26912109 37.26160156 -31.69140625 37.2734375 C-48.17274756 37.22746444 -48.17274756 37.22746444 -53.125 32.5 C-55 30 -55 30 -55 28 C-54.01 28.33 -53.02 28.66 -52 29 C-52 29.66 -52 30.32 -52 31 C-45.03248273 33.24903359 -38.40445308 33.37224007 -31.12963867 33.37060547 C-28.93916043 33.37499667 -26.75067218 33.41143682 -24.56054688 33.44921875 C-23.15365264 33.45508519 -21.74674896 33.45905574 -20.33984375 33.4609375 C-18.44286743 33.47326416 -18.44286743 33.47326416 -16.50756836 33.48583984 C-11.53163071 32.79661343 -8.61264559 30.67269205 -5.1706543 27.10253906 C-3.6928851 24.44841012 -3.47877048 22.38529619 -3.26953125 19.359375 C-3.18896484 18.28945313 -3.10839844 17.21953125 -3.02539062 16.1171875 C-2.95513672 15.00601563 -2.88488281 13.89484375 -2.8125 12.75 C-2.73064453 11.62335937 -2.64878906 10.49671875 -2.56445312 9.3359375 C-2.36435656 6.55812634 -2.18060204 3.7791467 -2 1 C-10.415 1.495 -10.415 1.495 -19 2 C-19.24957916 6.89098109 -19.24957916 6.89098109 -19.47802734 11.78295898 C-19.58045182 13.52765111 -19.78742165 15.26528048 -20 17 C-20.99 17.495 -20.99 17.495 -22 18 C-22.02683987 15.02077407 -22.04676037 12.04178705 -22.0625 9.0625 C-22.07087891 8.21236328 -22.07925781 7.36222656 -22.08789062 6.48632812 C-22.09111328 5.67744141 -22.09433594 4.86855469 -22.09765625 4.03515625 C-22.10289307 3.2862915 -22.10812988 2.53742676 -22.11352539 1.76586914 C-22 0 -22 0 -21 -1 C-17.87034015 -1.40632434 -14.712715 -1.51616851 -11.5625 -1.6875 C-10.23508789 -1.77741211 -10.23508789 -1.77741211 -8.88085938 -1.86914062 C-8.03458984 -1.91619141 -7.18832031 -1.96324219 -6.31640625 -2.01171875 C-5.53724854 -2.05772217 -4.75809082 -2.10372559 -3.95532227 -2.15112305 C-2 -2 -2 -2 0 0 Z " fill="#FD263A" transform="translate(498,525)"/>
<path d="M0 0 C0.66 0 1.32 0 2 0 C1.39325927 5.32823878 -0.38057806 9.69180412 -2.5078125 14.55078125 C-3.23898397 16.25325602 -3.96976408 17.95589891 -4.70019531 19.65869141 C-5.0798645 20.53833557 -5.45953369 21.41797974 -5.85070801 22.32427979 C-7.71993895 26.67612339 -9.54235184 31.04736811 -11.3671875 35.41796875 C-12.11036256 37.19399255 -12.85369091 38.96995221 -13.59716797 40.74584961 C-13.96984802 41.63642059 -14.34252808 42.52699158 -14.72650146 43.44454956 C-15.90256514 46.25333362 -17.08029349 49.06141536 -18.25830078 51.86938477 C-21.62291812 59.89410715 -24.98375276 67.9190275 -28.25 75.984375 C-28.7052002 77.10175049 -29.16040039 78.21912598 -29.62939453 79.37036133 C-30.43062851 81.343294 -31.22393743 83.31947359 -32.00732422 85.29956055 C-35.21804926 93.18267637 -35.21804926 93.18267637 -39 96 C-42 96.5625 -42 96.5625 -45 96 C-49.03848612 92.41023456 -50.21315847 88.17499624 -51 83 C-51.125 79.5 -51.125 79.5 -51 77 C-48.99189062 80.01216408 -48.31215234 82.15386662 -47.4375 85.625 C-46.77992264 89.10760949 -46.77992264 89.10760949 -45 92 C-42.67182036 92.36760731 -40.3381615 92.70241581 -38 93 C-37.82984375 92.46197754 -37.6596875 91.92395508 -37.484375 91.36962891 C-35.60636478 85.5695242 -33.40285859 79.97564785 -31 74.375 C-30.65710938 73.56804687 -30.31421875 72.76109375 -29.9609375 71.9296875 C-28.50041168 68.49577948 -27.02881231 65.06679349 -25.55078125 61.64038086 C-24.07862749 58.18457408 -22.65429457 54.71433226 -21.25 51.23046875 C-20.72367187 49.92768571 -20.19721812 48.62495342 -19.6706543 47.32226562 C-19.26162369 46.30966675 -19.26162369 46.30966675 -18.84432983 45.27661133 C-12.7175306 30.11717342 -6.4289682 15.03413529 0 0 Z " fill="#FC2235" transform="translate(200,467)"/>
<path d="M0 0 C0.66 0 1.32 0 2 0 C2 31.68 2 63.36 2 96 C2.99 96.33 3.98 96.66 5 97 C3.33388095 97.042721 1.66617115 97.04063832 0 97 C-1.7680921 95.2319079 -1.12618213 92.88410891 -1.13552856 90.5289917 C-1.13350433 89.74413391 -1.1314801 88.95927612 -1.12939453 88.15063477 C-1.13114685 87.3277446 -1.13289917 86.50485443 -1.13470459 85.6570282 C-1.13912855 82.91846648 -1.1361808 80.17996871 -1.1328125 77.44140625 C-1.13348596 75.53865039 -1.13445635 73.63589461 -1.13571167 71.73313904 C-1.13718985 67.73232204 -1.1350324 63.73152731 -1.13037109 59.73071289 C-1.12470844 54.62329845 -1.1279299 49.51593696 -1.13394356 44.40852451 C-1.1375757 40.47150787 -1.13639784 36.53450353 -1.13381577 32.5974865 C-1.13315201 30.71618582 -1.13395551 28.83488401 -1.13629532 26.95358467 C-1.15386281 8.8361599 -1.15386281 8.8361599 0 0 Z " fill="#FD263C" transform="translate(338,464)"/>
<path d="M0 0 C2.25 0.125 2.25 0.125 5 1 C9.83997213 7.04996517 10.15058617 11.89606655 10.16113281 19.40527344 C10.16609772 20.25132141 10.17106262 21.09736938 10.17617798 21.96905518 C10.19077291 24.76583676 10.19759763 27.5625616 10.203125 30.359375 C10.20887922 32.30747478 10.21463692 34.25557455 10.22039795 36.20367432 C10.23090075 40.28910587 10.23674794 44.37451779 10.24023438 48.45996094 C10.24571356 53.68304569 10.2697324 58.90586903 10.29820633 64.12887192 C10.31687438 68.15416205 10.32204056 72.17938978 10.32357025 76.20471954 C10.32658856 78.12955401 10.33458921 80.05438758 10.34775543 81.97917938 C10.36490102 84.67870179 10.36291486 87.37759296 10.35644531 90.07714844 C10.3656601 90.86496704 10.37487488 91.65278564 10.3843689 92.46447754 C10.34367483 97.91306699 9.42404371 102.08263462 7 107 C4.89201736 107.71905136 4.89201736 107.71905136 3 108 C3.28299454 107.50485397 3.56598907 107.00970795 3.8575592 106.4995575 C8.24130173 97.51414618 7.56126141 88.21260508 7.49609375 78.45703125 C7.49624896 76.55995122 7.49774155 74.66287087 7.50050354 72.76579285 C7.5018823 68.80603883 7.48941398 64.84664934 7.46655273 60.88696289 C7.4381113 55.82306311 7.44092832 50.75976558 7.45364285 45.69582081 C7.46061011 41.78463127 7.45279972 37.87357995 7.44038582 33.96240807 C7.43588563 32.09537982 7.43552194 30.22833668 7.43945122 28.36130714 C7.44237526 25.75073612 7.42580197 23.14098474 7.40405273 20.53051758 C7.40855438 19.76723145 7.41305603 19.00394531 7.41769409 18.2175293 C7.34705999 13.09154786 6.24650532 9.60970092 4 5 C3.67 4.01 3.34 3.02 3 2 C2.01 1.67 1.02 1.34 0 1 C0 0.67 0 0.34 0 0 Z " fill="#FC1F35" transform="translate(288,448)"/>
<path d="M0 0 C4.03614402 -0.32289152 6.51795675 -0.23629571 10.1875 1.5625 C15.17460733 5.88465969 17.19208951 10.43689941 18 17 C18.09556453 19.703812 18.14693572 22.38165042 18.14526367 25.08496094 C18.14862228 25.87266373 18.1519809 26.66036652 18.15544128 27.47193909 C18.16489326 30.05943401 18.16689088 32.64686393 18.16796875 35.234375 C18.17118319 37.03704861 18.1745474 38.83972196 18.17805481 40.64239502 C18.1840301 44.41150519 18.18589614 48.18059246 18.18530273 51.94970703 C18.18520071 56.78764622 18.1989015 61.62543997 18.21607494 66.46334457 C18.22716613 70.18128134 18.2292229 73.89918247 18.22869301 77.61713409 C18.22987561 79.40178177 18.23431301 81.1864303 18.24202538 82.97106171 C18.25177568 85.45835271 18.24896807 87.94532147 18.24291992 90.43261719 C18.24853943 91.17341019 18.25415894 91.91420319 18.25994873 92.67744446 C18.22832215 97.77167785 18.22832215 97.77167785 16 100 C15.98969254 98.98824203 15.97938507 97.97648407 15.96876526 96.93406677 C15.87088329 87.38541187 15.76813571 77.83681998 15.66066074 68.28826809 C15.60556622 63.37961939 15.55216829 58.4709646 15.50268555 53.56225586 C15.45484264 48.82247503 15.40249364 44.08276317 15.34705925 39.34306526 C15.32672567 37.53745307 15.30799824 35.73182204 15.29092598 33.92617607 C15.26668164 31.39138886 15.23665608 28.85672964 15.20532227 26.32202148 C15.1995668 25.58042786 15.19381134 24.83883423 15.18788147 24.07476807 C15.0755997 13.68645025 15.0755997 13.68645025 10 5 C6.75995487 3.35708858 3.45241353 2.12005782 0 1 C0 0.67 0 0.34 0 0 Z " fill="#FE263B" transform="translate(572,446)"/>
<path d="M0 0 C0.33 0 0.66 0 1 0 C1.14643014 6.71524637 1.2882261 13.43058088 1.42669678 20.14599609 C1.475421 22.50001318 1.52477434 24.85401734 1.57476807 27.20800781 C2.06211029 50.33089195 2.06211029 50.33089195 1.9609375 60.73828125 C1.95503601 61.42766281 1.94913452 62.11704437 1.9430542 62.82731628 C1.91338836 65.88932507 1.86375178 68.94927251 1.78710938 72.01049805 C1.77228516 73.04859619 1.75746094 74.08669434 1.7421875 75.15625 C1.70907471 76.46819336 1.70907471 76.46819336 1.67529297 77.80664062 C2.0776958 80.52482637 2.81808339 81.37702022 5 83 C7.73230305 83.57775884 7.73230305 83.57775884 10.6875 83.6875 C11.68136719 83.75324219 12.67523437 83.81898438 13.69921875 83.88671875 C14.45847656 83.92410156 15.21773437 83.96148438 16 84 C15.67 84.66 15.34 85.32 15 86 C13.2507786 86.08142927 11.50045458 86.13938541 9.75 86.1875 C8.77546875 86.22230469 7.8009375 86.25710938 6.796875 86.29296875 C3.57223082 85.95519178 2.29209203 85.25529239 0 83 C-1.19529752 79.41410743 -1.13979359 76.15481695 -1.12939453 72.42333984 C-1.13114685 71.65397598 -1.13289917 70.88461212 -1.13470459 70.0919342 C-1.139107 67.54824572 -1.13619135 65.0046267 -1.1328125 62.4609375 C-1.13348586 60.69642117 -1.13445616 58.93190493 -1.13571167 57.16738892 C-1.13718634 53.47030758 -1.13504095 49.7732504 -1.13037109 46.07617188 C-1.12466559 41.32664766 -1.12795945 36.57717985 -1.13394356 31.8276577 C-1.13754826 28.18524751 -1.13641115 24.5428508 -1.13381577 20.90044022 C-1.13314668 19.14846414 -1.13397429 17.39648685 -1.13629532 15.64451218 C-1.13882126 13.2022652 -1.13498248 10.76011111 -1.12939453 8.31787109 C-1.13141876 7.58747116 -1.13344299 6.85707123 -1.13552856 6.10453796 C-1.11426443 1.11426443 -1.11426443 1.11426443 0 0 Z " fill="#FE2339" transform="translate(549,462)"/>
<path d="M0 0 C0.99386719 0.00902344 1.98773438 0.01804687 3.01171875 0.02734375 C4.15060547 0.04474609 4.15060547 0.04474609 5.3125 0.0625 C5.3125 0.7225 5.3125 1.3825 5.3125 2.0625 C4.40757812 2.15337891 4.40757812 2.15337891 3.484375 2.24609375 C2.28554688 2.37177734 2.28554688 2.37177734 1.0625 2.5 C0.27359375 2.58121094 -0.5153125 2.66242188 -1.328125 2.74609375 C-3.53478444 3.04201993 -5.57498009 3.35676879 -7.6875 4.0625 C-9.17583818 7.03917636 -8.86644997 10.09169152 -8.89282227 13.35791016 C-8.90272186 14.10922714 -8.91262146 14.86054413 -8.92282104 15.6346283 C-8.95446523 18.12357406 -8.97920495 20.61253893 -9.00390625 23.1015625 C-9.02447326 24.82506818 -9.04546967 26.54856879 -9.06687927 28.27206421 C-9.12212607 32.8127024 -9.17152383 37.3533863 -9.21972656 41.894104 C-9.26992256 46.52579832 -9.32561854 51.15742609 -9.38085938 55.7890625 C-9.48847284 64.88015151 -9.58991072 73.97129825 -9.6875 83.0625 C-10.3475 83.0625 -11.0075 83.0625 -11.6875 83.0625 C-11.75695033 72.81403503 -11.81028596 62.56562587 -11.84293652 52.31697369 C-11.8586056 47.55831795 -11.87986649 42.79982297 -11.91381836 38.04125977 C-11.94636758 33.45066048 -11.96434365 28.86021602 -11.97213173 24.26951027 C-11.97768323 22.5163714 -11.98852375 20.76324119 -12.00469017 19.01016808 C-12.02640575 16.55826754 -12.02946943 14.10701022 -12.02807617 11.6550293 C-12.038862 10.92710678 -12.04964783 10.19918427 -12.0607605 9.44920349 C-12.03057927 4.55431721 -12.03057927 4.55431721 -10.35371399 2.15046692 C-6.94438201 -0.07568196 -3.94579376 -0.0464211 0 0 Z " fill="#FD2236" transform="translate(267.6875,458.9375)"/>
<path d="M0 0 C5.84085674 0.40281771 9.37735881 1.112779 14 5 C20.22646583 12.74101157 19.21560219 21.70334379 19.24023438 31.16723633 C19.24995749 33.42761807 19.28103706 35.68709595 19.3125 37.94726562 C19.31903006 39.40103633 19.32428052 40.85481346 19.328125 42.30859375 C19.3374707 43.61626709 19.34681641 44.92394043 19.35644531 46.27124023 C18.87703448 51.28633723 17.65368895 55.34631105 14 59 C13.01 58.67 12.02 58.34 11 58 C11.65049316 57.52941162 12.30098633 57.05882324 12.97119141 56.57397461 C15.95514249 52.78819888 15.53926918 49.50667344 15.4609375 44.81640625 C15.46002106 43.92388657 15.45910461 43.03136688 15.4581604 42.11180115 C15.45212539 40.22641678 15.43638234 38.34104197 15.41162109 36.45581055 C15.37517465 33.57629891 15.37060145 30.69807734 15.37109375 27.81835938 C15.36125967 25.98436393 15.3496014 24.15037716 15.3359375 22.31640625 C15.33371185 21.45793594 15.33148621 20.59946564 15.32919312 19.71498108 C15.26108849 15.40463578 15.10181441 11.88150446 13 8 C11.26795783 6.42658609 11.26795783 6.42658609 9.1875 5.3125 C8.47980469 4.90257812 7.77210938 4.49265625 7.04296875 4.0703125 C4.74919622 2.86860376 2.44970042 1.84208452 0 1 C0 0.67 0 0.34 0 0 Z " fill="#FC2539" transform="translate(664,445)"/>
<path d="M0 0 C0.66 0.33 1.32 0.66 2 1 C2 15.19 2 29.38 2 44 C-4.79869268 45.69967317 -11.99206799 45 -19 45 C-19 33.78 -19 22.56 -19 11 C-18.67 11 -18.34 11 -18 11 C-18 21.23 -18 31.46 -18 42 C-12.06 42 -6.12 42 0 42 C0 28.14 0 14.28 0 0 Z " fill="#FC273A" transform="translate(947,517)"/>
<path d="M0 0 C4.95 0.33 9.9 0.66 15 1 C15 1.33 15 1.66 15 2 C10.71 2 6.42 2 2 2 C2 17.51 2 33.02 2 49 C-0.70716242 49.90238747 -2.23776768 50.11851302 -5.01171875 50.09765625 C-6.14770508 50.09282227 -6.14770508 50.09282227 -7.30664062 50.08789062 C-8.48516602 50.07532227 -8.48516602 50.07532227 -9.6875 50.0625 C-10.48478516 50.05798828 -11.28207031 50.05347656 -12.10351562 50.04882812 C-14.06904257 50.0370585 -16.03453085 50.01912348 -18 50 C-18 49.01 -18 48.02 -18 47 C-12.06 47 -6.12 47 0 47 C0 31.49 0 15.98 0 0 Z " fill="#FD263A" transform="translate(908,512)"/>
<path d="M0 0 C4.13946216 0.19253312 5.70312083 0.71661534 8.75 3.625 C13.67052923 9.5624386 13.26090737 17.17690994 13.125 24.4375 C13.11597656 25.35982422 13.10695313 26.28214844 13.09765625 27.23242188 C13.0742766 29.48855809 13.04150916 31.74413684 13 34 C9.52125243 34.19590444 6.04199096 34.38031592 2.5625 34.5625 C1.56927734 34.61857422 0.57605469 34.67464844 -0.44726562 34.73242188 C-1.39150391 34.78076172 -2.33574219 34.82910156 -3.30859375 34.87890625 C-4.18314209 34.9260376 -5.05769043 34.97316895 -5.95874023 35.02172852 C-8 35 -8 35 -9 34 C-9.23701239 31.14122091 -9.42219182 28.30116703 -9.5625 25.4375 C-9.60568359 24.63119141 -9.64886719 23.82488281 -9.69335938 22.99414062 C-9.79975262 20.99631195 -9.90040888 18.9981793 -10 17 C-13.63616656 15.0210244 -16.88425629 14.4748935 -21 14 C-21 13.67 -21 13.34 -21 13 C-19.41753293 12.91846067 -17.83383727 12.86056443 -16.25 12.8125 C-15.36828125 12.77769531 -14.4865625 12.74289062 -13.578125 12.70703125 C-10.31696256 13.07761789 -9.11524085 13.45387675 -7 16 C-6.51050063 18.91035942 -6.62456827 21.74709069 -6.75 24.6875 C-6.76804687 25.48478516 -6.78609375 26.28207031 -6.8046875 27.10351562 C-6.85177753 29.06952449 -6.92352101 31.03491494 -7 33 C-6.01 32.505 -6.01 32.505 -5 32 C-2.28239892 31.92818179 0.40859388 31.90700494 3.125 31.9375 C3.87910156 31.94201172 4.63320313 31.94652344 5.41015625 31.95117188 C7.27347127 31.96296501 9.13674555 31.98090058 11 32 C10.93947584 28.99800175 10.85224389 26.00063578 10.75 23 C10.73582031 22.16082031 10.72164063 21.32164062 10.70703125 20.45703125 C10.48063768 14.61607721 9.44076603 9.82903156 6 5 C4.07929816 3.37726682 2.20028074 2.25015951 0 1 C0 0.67 0 0.34 0 0 Z " fill="#FD2A3F" transform="translate(485,447)"/>
<path d="M0 0 C2 1 2 1 2.8125 3.25 C4.50198346 7.16248801 7.16319632 10.08159816 11 12 C13.79749224 12.09912227 16.56953669 12.13981839 19.3671875 12.1328125 C20.19832062 12.13376923 21.02945374 12.13472595 21.88577271 12.13571167 C23.64601721 12.13639282 25.40626422 12.13454304 27.16650391 12.13037109 C29.85715411 12.12503539 32.54763635 12.13031128 35.23828125 12.13671875 C36.94791703 12.13605769 38.65755271 12.13477596 40.3671875 12.1328125 C41.17147186 12.13483673 41.97575623 12.13686096 42.80441284 12.13894653 C46.3725747 12.12403015 49.56696449 11.96193265 53 11 C53 11.66 53 12.32 53 13 C45.54304337 16.28983381 38.2026561 16.18259776 30.1875 16.1875 C29.14529297 16.19974609 28.10308594 16.21199219 27.02929688 16.22460938 C18.08035983 16.24146236 10.18436851 15.81591737 3 10 C0.42527183 7.42527183 0.02555185 6.44289872 -0.1875 2.75 C-0.125625 1.8425 -0.06375 0.935 0 0 Z " fill="#FD253A" transform="translate(237,546)"/>
<path d="M0 0 C1.299375 -0.02126953 1.299375 -0.02126953 2.625 -0.04296875 C5 0.1875 5 0.1875 8 2.1875 C1.565 2.6825 1.565 2.6825 -5 3.1875 C-4.98952637 4.23728027 -4.97905273 5.28706055 -4.96826172 6.36865234 C-4.93211547 10.25615033 -4.90911922 14.14363341 -4.89013672 18.03125 C-4.88006683 19.71519466 -4.86641012 21.39912179 -4.84912109 23.08300781 C-4.82491574 25.50069501 -4.81352704 27.91815143 -4.8046875 30.3359375 C-4.79436493 31.0911972 -4.78404236 31.84645691 -4.77340698 32.62460327 C-4.77300682 34.4804398 -4.87777284 36.3356928 -5 38.1875 C-5.66 38.8475 -6.32 39.5075 -7 40.1875 C-8.61301773 36.96146455 -8.12053599 33.44039962 -8.09765625 29.8984375 C-8.0962413 29.08001373 -8.09482635 28.26158997 -8.09336853 27.41836548 C-8.0877629 24.79970675 -8.07520948 22.18113296 -8.0625 19.5625 C-8.05748572 17.78906373 -8.05292269 16.01562613 -8.04882812 14.2421875 C-8.03779164 9.89059218 -8.02052325 5.5390605 -8 1.1875 C-5.07345473 0.21198491 -3.05345004 0.02271912 0 0 Z " fill="#FD263B" transform="translate(649,458.8125)"/>
<path d="M0 0 C0.66 0.33 1.32 0.66 2 1 C2.07427668 6.6050325 2.12866208 12.20977711 2.16479492 17.81518555 C2.17986128 19.72116081 2.20031824 21.62710152 2.22631836 23.53295898 C2.26279642 26.27596576 2.27974792 29.01851328 2.29296875 31.76171875 C2.30845261 32.61086349 2.32393646 33.46000824 2.33988953 34.33488464 C2.34122752 39.06141684 2.06856122 42.15706351 -1 46 C-2.97265625 47.3984375 -2.97265625 47.3984375 -5.0625 48.375 C-5.75472656 48.71273437 -6.44695313 49.05046875 -7.16015625 49.3984375 C-9 50 -9 50 -11 49 C-10 47 -10 47 -6.5625 45.5625 C-2.80931887 44.29809012 -2.80931887 44.29809012 -1 41 C-0.67508765 39.04479191 -0.67508765 39.04479191 -0.68115234 36.89575195 C-0.66128265 36.07512772 -0.64141296 35.25450348 -0.62094116 34.40901184 C-0.60938995 33.52767075 -0.59783875 32.64632965 -0.5859375 31.73828125 C-0.56657135 30.83248825 -0.5472052 29.92669525 -0.5272522 28.99345398 C-0.46746458 26.09989849 -0.42107432 23.2063032 -0.375 20.3125 C-0.33681946 18.35089409 -0.29776769 16.38930494 -0.2578125 14.42773438 C-0.16176368 9.6186256 -0.07772957 4.80943834 0 0 Z " fill="#FC2033" transform="translate(947,457)"/>
<path d="M0 0 C0.66 0.53625 1.32 1.0725 2 1.625 C1.45650964 5.42943255 -0.03084153 7.2331779 -3 9.625 C-5.75 10.375 -5.75 10.375 -8 10.625 C-8 11.285 -8 11.945 -8 12.625 C-10.64 13.285 -13.28 13.945 -16 14.625 C-16 13.965 -16 13.305 -16 12.625 C-11.71 10.315 -7.42 8.005 -3 5.625 C-3 4.305 -3 2.985 -3 1.625 C-10.36985127 4.17441591 -10.36985127 4.17441591 -17.4375 7.4375 C-20.35030783 8.78733778 -21.0624785 8.54180607 -24 7.625 C-5.89031621 -2.69972826 -5.89031621 -2.69972826 0 0 Z M-2 1.625 C-1 4.625 -1 4.625 -1 4.625 Z " fill="#FE2438" transform="translate(163,488.375)"/>
<path d="M0 0 C0.33 0 0.66 0 1 0 C3.50794826 12.97763705 1.84982939 26.8883466 1 40 C0.34 39.67 -0.32 39.34 -1 39 C-1.02467917 33.76725612 -1.04285003 28.53454597 -1.05493164 23.30175781 C-1.05996711 21.52082733 -1.06679581 19.739901 -1.07543945 17.95898438 C-1.08753942 15.40233335 -1.09323609 12.84573688 -1.09765625 10.2890625 C-1.10281754 9.49005524 -1.10797882 8.69104797 -1.11329651 7.86782837 C-1.11387171 2.22774341 -1.11387171 2.22774341 0 0 Z " fill="#FD2439" transform="translate(642,514)"/>
<path d="M0 0 C0.33 0 0.66 0 1 0 C1.95850367 5.68918307 2.2155825 11.23506874 2.25 17 C2.270625 17.86367188 2.29125 18.72734375 2.3125 19.6171875 C2.34629209 25.17598675 1.75206317 29.1245501 -1 34 C-6.61700063 36.75118398 -12.01190858 35.89158705 -18 35 C-18 34.67 -18 34.34 -18 34 C-16.51886719 33.80083984 -16.51886719 33.80083984 -15.0078125 33.59765625 C-13.72648438 33.42105469 -12.44515625 33.24445313 -11.125 33.0625 C-9.84882812 32.88847656 -8.57265625 32.71445312 -7.2578125 32.53515625 C-4.12440546 32.18566773 -4.12440546 32.18566773 -2 31 C-1.00976205 27.47846629 -0.91925955 24.20086656 -1 20.5625 C-1.06863149 13.67361391 -0.56843948 6.86187659 0 0 Z " fill="#FD2339" transform="translate(928,465)"/>
<path d="M0 0 C1.32 0 2.64 0 4 0 C4 0.66 4 1.32 4 2 C3.29875 2.16371094 2.5975 2.32742188 1.875 2.49609375 C-3.27148476 4.18128781 -6.71645246 6.00452274 -9.37109375 10.80078125 C-11.15470854 14.4573555 -12.71342275 18.20085968 -14.20263672 21.98583984 C-15.21798424 24.55063379 -16.35208859 27.05469354 -17.5 29.5625 C-17.995 30.696875 -18.49 31.83125 -19 33 C-19.66 33 -20.32 33 -21 33 C-20.33510226 30.05157714 -19.3998694 27.37576452 -18.22265625 24.59375 C-17.87396484 23.76746094 -17.52527344 22.94117188 -17.16601562 22.08984375 C-16.80185547 21.23519531 -16.43769531 20.38054688 -16.0625 19.5 C-15.70220703 18.64535156 -15.34191406 17.79070313 -14.97070312 16.91015625 C-10.14122886 5.50797207 -10.14122886 5.50797207 -3 2 C-2.01 2 -1.02 2 0 2 C0 1.34 0 0.68 0 0 Z " fill="#FD2336" transform="translate(133,498)"/>
<path d="M0 0 C0.98820992 0.00424484 0.98820992 0.00424484 1.99638367 0.00857544 C4.08501937 0.01970326 6.17321431 0.04479302 8.26171875 0.0703125 C9.68423857 0.08035191 11.10676515 0.08947608 12.52929688 0.09765625 C16.00274556 0.11961803 19.47593908 0.15409604 22.94921875 0.1953125 C22.94921875 0.5253125 22.94921875 0.8553125 22.94921875 1.1953125 C18.64535741 1.80303366 14.4193256 2.26015266 10.07421875 2.40625 C9.23375 2.43460937 8.39328125 2.46296875 7.52734375 2.4921875 C5.80881255 2.5442642 4.09002713 2.58853778 2.37109375 2.625 C-3.38091716 2.83673046 -7.80582791 3.77053917 -13.05078125 6.1953125 C-15.39403789 8.74671103 -15.39403789 8.74671103 -17.05078125 11.1953125 C-17.71078125 11.1953125 -18.37078125 11.1953125 -19.05078125 11.1953125 C-18.80085109 7.82125528 -17.81799286 6.9731054 -15.30078125 4.5703125 C-10.55140345 0.64582663 -6.07178164 -0.05167474 0 0 Z " fill="#FD1F32" transform="translate(257.05078125,444.8046875)"/>
<path d="M0 0 C0 0.66 0 1.32 0 2 C-2.31 2.66 -4.62 3.32 -7 4 C-7.26554688 5.26714844 -7.53109375 6.53429687 -7.8046875 7.83984375 C-8.16143077 9.53906829 -8.51820317 11.23828671 -8.875 12.9375 C-9.04902344 13.76830078 -9.22304687 14.59910156 -9.40234375 15.45507812 C-9.75441852 17.13069324 -10.10957186 18.8056644 -10.46777344 20.47998047 C-10.82779642 22.18463973 -11.17444921 23.89216873 -11.50878906 25.60205078 C-11.6734668 26.41528809 -11.83814453 27.22852539 -12.0078125 28.06640625 C-12.15105957 28.79931885 -12.29430664 29.53223145 -12.44189453 30.28735352 C-12.62606934 30.85252686 -12.81024414 31.4177002 -13 32 C-13.99 32.495 -13.99 32.495 -15 33 C-15.29558456 26.97335931 -14.2226098 21.70515692 -12.75 15.875 C-12.44255859 14.55435547 -12.44255859 14.55435547 -12.12890625 13.20703125 C-10.90191256 8.27674751 -9.70036394 4.68556248 -6 1 C-4 0 -4 0 0 0 Z " fill="#FD2236" transform="translate(174,410)"/>
<path d="M0 0 C0.33 0 0.66 0 1 0 C0.47034483 6.54549161 -0.78748161 12.24524079 -2.9375 18.4375 C-3.20240234 19.23865234 -3.46730469 20.03980469 -3.74023438 20.86523438 C-5.732103 26.732103 -5.732103 26.732103 -8 29 C-7.47509457 22.43212078 -6.1888398 16.76249198 -4 10.5625 C-3.59007812 9.36077148 -3.59007812 9.36077148 -3.171875 8.13476562 C-1.20224057 2.40448113 -1.20224057 2.40448113 0 0 Z " fill="#FE2034" transform="translate(143,437)"/>
<path d="M0 0 C6.75 0.75 6.75 0.75 9 3 C8.87616818 9.9345818 6.32818476 15.0068112 3 21 C1.97778007 17.83856486 1.8379049 17.3171426 3.4375 14.1875 C5.23340555 10.52385268 5.24161949 8.02699149 5 4 C2.525 3.01 2.525 3.01 0 2 C0 1.34 0 0.68 0 0 Z " fill="#FD2337" transform="translate(200,445)"/>
<path d="M0 0 C-0.33 2.31 -0.66 4.62 -1 7 C-1.33 7 -1.66 7 -2 7 C-2 5.02 -2 3.04 -2 1 C-8.94006616 2.15667769 -14.32083611 4.48786337 -20.49609375 7.85546875 C-21.32238281 8.23316406 -22.14867187 8.61085938 -23 9 C-23.66 8.67 -24.32 8.34 -25 8 C-7.34711614 -3.88174875 -7.34711614 -3.88174875 0 0 Z " fill="#FC2234" transform="translate(153,405)"/>
<path d="M0 0 C0.33 0.99 0.66 1.98 1 3 C7.27 3 13.54 3 20 3 C20 3.66 20 4.32 20 5 C17.703463 6.1482685 16.41686833 6.11561175 13.8671875 6.09765625 C13.06152344 6.09443359 12.25585938 6.09121094 11.42578125 6.08789062 C10.58402344 6.07951172 9.74226562 6.07113281 8.875 6.0625 C8.02550781 6.05798828 7.17601562 6.05347656 6.30078125 6.04882812 C4.20049091 6.03702874 2.1002367 6.01909306 0 6 C0 4.02 0 2.04 0 0 Z " fill="#FC283C" transform="translate(622,556)"/>
<path d="M0 0 C0.98291016 0.00322266 1.96582031 0.00644531 2.97851562 0.00976562 C4.51475586 0.02233398 4.51475586 0.02233398 6.08203125 0.03515625 C7.63567383 0.04192383 7.63567383 0.04192383 9.22070312 0.04882812 C11.77870391 0.06061615 14.33658858 0.0770711 16.89453125 0.09765625 C16.89453125 0.75765625 16.89453125 1.41765625 16.89453125 2.09765625 C16.2897998 2.11747559 15.68506836 2.13729492 15.06201172 2.15771484 C12.29744616 2.25351924 9.53357951 2.3629718 6.76953125 2.47265625 C5.81820312 2.50359375 4.866875 2.53453125 3.88671875 2.56640625 C-1.12257223 2.77512671 -5.40913488 3.1527099 -10.10546875 5.09765625 C-9.29296875 3.16015625 -9.29296875 3.16015625 -8.10546875 1.09765625 C-5.10530963 0.09760321 -3.13123119 -0.0180996 0 0 Z " fill="#FC2234" transform="translate(749.10546875,444.90234375)"/>
<path d="M0 0 C2.94606829 0.13702643 5.20159518 0.29875555 7.4765625 2.296875 C11.00818806 6.46873678 12.13010288 9.53302444 12.09765625 14.88671875 C12.09443359 15.82451172 12.09121094 16.76230469 12.08789062 17.72851562 C12.07951172 18.70498047 12.07113281 19.68144531 12.0625 20.6875 C12.05798828 21.67556641 12.05347656 22.66363281 12.04882812 23.68164062 C12.03704303 26.12115474 12.02059011 28.56054689 12 31 C11.67 31 11.34 31 11 31 C10.97421875 29.7934375 10.9484375 28.586875 10.921875 27.34375 C10.86555114 25.72913262 10.8082048 24.11455067 10.75 22.5 C10.73582031 21.70851563 10.72164063 20.91703125 10.70703125 20.1015625 C10.4731481 14.39481357 9.33116912 9.72543358 6 5 C4.07999292 3.37549216 2.20085458 2.25048556 0 1 C0 0.67 0 0.34 0 0 Z " fill="#FD1E31" transform="translate(485,447)"/>
<path d="M0 0 C0.33 0 0.66 0 1 0 C1.38725982 7.61610975 0.36050782 14.72357223 -2 22 C-2.66 22.33 -3.32 22.66 -4 23 C-4.15340179 17.86437488 -3.62626414 13.13211305 -2.5625 8.125 C-2.42779297 7.44953125 -2.29308594 6.7740625 -2.15429688 6.078125 C-1.13737555 1.13737555 -1.13737555 1.13737555 0 0 Z " fill="#FD2337" transform="translate(101,447)"/>
<path d="M0 0 C0 0.66 0 1.32 0 2 C-1.08667969 2.48919922 -1.08667969 2.48919922 -2.1953125 2.98828125 C-3.16210938 3.42527344 -4.12890625 3.86226563 -5.125 4.3125 C-6.12917969 4.76625 -7.13335937 5.22 -8.16796875 5.6875 C-10.28656843 6.66936137 -12.37197597 7.72340551 -14.4375 8.8125 C-17 10 -17 10 -21 10 C-21 9.34 -21 8.68 -21 8 C-18.25430077 6.65712527 -15.50405734 5.32553004 -12.75 4 C-11.97269531 3.6184375 -11.19539062 3.236875 -10.39453125 2.84375 C-9.26337891 2.30234375 -9.26337891 2.30234375 -8.109375 1.75 C-7.41811523 1.41484375 -6.72685547 1.0796875 -6.01464844 0.734375 C-4 0 -4 0 0 0 Z " fill="#FC2537" transform="translate(196,400)"/>
<path d="M0 0 C4.03614402 -0.32289152 6.51795675 -0.23629571 10.1875 1.5625 C13.42474004 4.36810803 15.66257476 6.89401933 17 11 C16.75 14.9375 16.75 14.9375 16 18 C15.67 18 15.34 18 15 18 C14.9175 16.96875 14.835 15.9375 14.75 14.875 C13.88845324 10.42367508 13.05688938 8.35512249 10 5 C6.75995487 3.35708858 3.45241353 2.12005782 0 1 C0 0.67 0 0.34 0 0 Z " fill="#FC2135" transform="translate(572,446)"/>
<path d="M0 0 C0 0.66 0 1.32 0 2 C-0.64066406 2.18175781 -1.28132813 2.36351562 -1.94140625 2.55078125 C-5.99158496 3.72780785 -9.96016131 4.89485674 -13.8125 6.625 C-16.60197043 7.82830097 -19.01221691 8.54730559 -22 9 C-22 8.34 -22 7.68 -22 7 C-19.56292162 6.0197729 -17.12536055 5.04077829 -14.6875 4.0625 C-13.99720703 3.78470703 -13.30691406 3.50691406 -12.59570312 3.22070312 C-4.56334714 0 -4.56334714 0 0 0 Z " fill="#FE2135" transform="translate(158,461)"/>
<path d="M0 0 C0.66 0 1.32 0 2 0 C1.4560915 5.47361889 -0.55393801 9.58317001 -3.0625 14.375 C-3.43955078 15.11105469 -3.81660156 15.84710937 -4.20507812 16.60546875 C-5.12944364 18.40739646 -6.06372614 20.20423099 -7 22 C-8.17037635 18.48887096 -7.86295634 18.1133418 -6.3125 14.9375 C-3.99812789 10.03457929 -1.98033883 5.04565052 0 0 Z " fill="#FD2134" transform="translate(110,532)"/>
<path d="M0 0 C0.33 0 0.66 0 1 0 C1.48350422 7.89723556 -0.32335279 15.33532703 -2 23 C-2.33 23 -2.66 23 -3 23 C-3.2537426 15.51459323 -2.49747338 8.34527088 -1 1 C-0.67 0.67 -0.34 0.34 0 0 Z " fill="#FD2336" transform="translate(87,521)"/>
<path d="M0 0 C1.0546875 1.859375 1.0546875 1.859375 2 4 C1.125 6.25 1.125 6.25 0 8 C0 6.35 0 4.7 0 3 C-5.28 3 -10.56 3 -16 3 C-15.67 2.34 -15.34 1.68 -15 1 C-12.45058627 0.68758629 -9.99638487 0.48696579 -7.4375 0.375 C-6.72658203 0.33632813 -6.01566406 0.29765625 -5.28320312 0.2578125 C-3.52257575 0.16328217 -1.76132272 0.08054183 0 0 Z " fill="#FB1F33" transform="translate(736,444)"/>
<path d="M0 0 C0.33 0 0.66 0 1 0 C1.25586913 3.56110675 1.47496153 7.12356545 1.6875 10.6875 C1.76033203 11.69490234 1.83316406 12.70230469 1.90820312 13.74023438 C2.32807219 21.22378308 2.32807219 21.22378308 0.64453125 25.20703125 C0.10183594 25.79871094 -0.44085937 26.39039063 -1 27 C-1.66 27 -2.32 27 -3 27 C-2.68289063 26.23429688 -2.36578125 25.46859375 -2.0390625 24.6796875 C-0.66573216 19.81623947 -0.53860147 15.15574529 -0.375 10.125 C-0.33632813 9.15046875 -0.29765625 8.1759375 -0.2578125 7.171875 C-0.16406967 4.7814328 -0.0783617 2.39098756 0 0 Z " fill="#FE243A" transform="translate(587,527)"/>
<path d="M0 0 C1.58246707 -0.08153933 3.16616273 -0.13943557 4.75 -0.1875 C6.07257813 -0.23970703 6.07257813 -0.23970703 7.421875 -0.29296875 C10.66273545 0.07531085 11.88171628 0.48944151 14 3 C14.29561076 5.87038052 14.37943016 8.33754745 14.25 11.1875 C14.23195313 11.93708984 14.21390625 12.68667969 14.1953125 13.45898438 C14.14824109 15.3065371 14.07649766 17.15343159 14 19 C13.67 19 13.34 19 13 19 C12.98582031 18.02417969 12.97164063 17.04835938 12.95703125 16.04296875 C12.90933594 14.77066406 12.86164063 13.49835938 12.8125 12.1875 C12.77769531 10.92292969 12.74289062 9.65835937 12.70703125 8.35546875 C12.33802021 4.87477918 12.33802021 4.87477918 9.6875 3.09375 C6.46710656 1.78312476 3.44996708 1.33823207 0 1 C0 0.67 0 0.34 0 0 Z " fill="#FD1F34" transform="translate(464,460)"/>
<path d="M0 0 C1.90845703 0.15275391 1.90845703 0.15275391 3.85546875 0.30859375 C4.83128906 0.39238281 5.80710937 0.47617187 6.8125 0.5625 C6.8125 1.2225 6.8125 1.8825 6.8125 2.5625 C1.2025 2.5625 -4.4075 2.5625 -10.1875 2.5625 C-10.1875 1.9025 -10.1875 1.2425 -10.1875 0.5625 C-6.51762779 -0.66079074 -3.84782178 -0.31771006 0 0 Z " fill="#FD263A" transform="translate(748.1875,459.4375)"/>
<path d="M0 0 C0.99 0 1.98 0 3 0 C2.34 2.64 1.68 5.28 1 8 C2.98 7.34 4.96 6.68 7 6 C6.67 6.99 6.34 7.98 6 9 C4.0085944 9.38133299 2.00720923 9.71325582 0 10 C-0.33 9.67 -0.66 9.34 -1 9 C-0.91062197 7.47480724 -0.75462854 5.95318071 -0.5625 4.4375 C-0.46066406 3.61121094 -0.35882813 2.78492188 -0.25390625 1.93359375 C-0.17011719 1.29550781 -0.08632812 0.65742188 0 0 Z " fill="#FD2539" transform="translate(157,444)"/>
<path d="M0 0 C2.625 -0.4375 2.625 -0.4375 6 0 C8.68419676 1.93759899 10.50382469 4.04629597 12 7 C12.20195364 9.97752156 11.72374182 12.05333687 11 15 C10.67 15 10.34 15 10 15 C9.87625 13.7625 9.7525 12.525 9.625 11.25 C9.16609215 6.78156458 9.16609215 6.78156458 7 3 C3.43793339 2.18129815 3.43793339 2.18129815 0 2 C0 1.34 0 0.68 0 0 Z " fill="#FD2337" transform="translate(936,508)"/>
<path d="M0 0 C0.33 0 0.66 0 1 0 C0.63223832 6.30267439 -0.16625922 11.33251843 -3 17 C-3.33 17 -3.66 17 -4 17 C-3.45018084 10.95198929 -2.09570426 5.69398894 0 0 Z " fill="#FD2034" transform="translate(199,415)"/>
<path d="M0 0 C0 0.66 0 1.32 0 2 C-9.41002278 5.44419134 -9.41002278 5.44419134 -14 5 C-14 4.34 -14 3.68 -14 3 C-9.07015675 0.96006486 -5.42039575 -0.40652968 0 0 Z " fill="#FE2134" transform="translate(185,452)"/>
<path d="M0 0 C-4.15851477 2.72902532 -8.33908059 4.34102868 -13 6 C-13 5.01 -13 4.02 -13 3 C-11.5903653 2.29819469 -10.17192359 1.61406042 -8.75 0.9375 C-7.96109375 0.55464844 -7.1721875 0.17179687 -6.359375 -0.22265625 C-3.74006478 -1.08564091 -2.55144824 -0.93045933 0 0 Z " fill="#FD2437" transform="translate(125,416)"/>
<path d="M0 0 C0.59554687 0.20753906 1.19109375 0.41507812 1.8046875 0.62890625 C1.25039063 1.015625 0.69609375 1.40234375 0.125 1.80078125 C-0.96167969 2.58195312 -0.96167969 2.58195312 -2.0703125 3.37890625 C-2.78960938 3.889375 -3.50890625 4.39984375 -4.25 4.92578125 C-6.28101815 6.70394172 -7.17386262 8.15592232 -8.1953125 10.62890625 C-8.8553125 10.62890625 -9.5153125 10.62890625 -10.1953125 10.62890625 C-9.07343463 5.8048314 -6.0375047 -1.02057464 0 0 Z " fill="#FC2135" transform="translate(539.1953125,447.37109375)"/>
<path d="M0 0 C2.25 0.125 2.25 0.125 5 1 C7.375 3.75 7.375 3.75 9 7 C8.75 9.875 8.75 9.875 8 12 C3 4.5 3 4.5 3 2 C2.01 1.67 1.02 1.34 0 1 C0 0.67 0 0.34 0 0 Z " fill="#FC2538" transform="translate(288,448)"/>
<path d="M0 0 C3.26737303 3.26737303 3.95672896 6.83168198 4.125 11.375 C4.08375 12.24125 4.0425 13.1075 4 14 C3.34 14 2.68 14 2 14 C-0.29612756 4.58997722 -0.29612756 4.58997722 0 0 Z " fill="#FD2135" transform="translate(145,529)"/>
<path d="M0 0 C0.66 0.33 1.32 0.66 2 1 C1.01 1.66 0.02 2.32 -1 3 C-1.57993699 5.19454681 -1.57993699 5.19454681 -1.6875 7.625 C-1.78611328 8.85089844 -1.78611328 8.85089844 -1.88671875 10.1015625 C-1.94279297 11.04128906 -1.94279297 11.04128906 -2 12 C-2.66 11.67 -3.32 11.34 -4 11 C-4.75 7.625 -4.75 7.625 -5 4 C-3 1 -3 1 0 0 Z " fill="#FE2034" transform="translate(144,504)"/>
<path d="M0 0 C0.66 0 1.32 0 2 0 C1.85769192 1.41702513 1.71099254 2.8336096 1.5625 4.25 C1.48128906 5.03890625 1.40007812 5.8278125 1.31640625 6.640625 C1.02365007 8.82364639 0.57935581 10.8773182 0 13 C-0.66 13 -1.32 13 -2 13 C-1.85769192 11.58297487 -1.71099254 10.1663904 -1.5625 8.75 C-1.48128906 7.96109375 -1.40007812 7.1721875 -1.31640625 6.359375 C-1.02365007 4.17635361 -0.57935581 2.1226818 0 0 Z " fill="#FE1F33" transform="translate(149,413)"/>
<path d="M0 0 C0.66 0 1.32 0 2 0 C1.35838246 2.88727894 0.6314173 4.56924498 -1.84375 6.2578125 C-3.8840955 7.31494803 -5.81069114 8.29759674 -8 9 C-8.66 8.67 -9.32 8.34 -10 8 C-9 6 -9 6 -5.5625 4.5625 C-1.80931887 3.29809012 -1.80931887 3.29809012 0 0 Z " fill="#FE2336" transform="translate(946,498)"/>
<path d="M0 0 C-2.77079887 3.80984844 -6.62868145 4.06840752 -11 5 C-11 4.01 -11 3.02 -11 2 C-7.17679443 0.57741188 -4.08718695 -0.24042276 0 0 Z " fill="#FE2236" transform="translate(170,457)"/>
<path d="M0 0 C0.66 0 1.32 0 2 0 C1.70381606 3.55420724 1.19662957 4.80337043 -1.375 7.375 C-2.24125 7.91125 -3.1075 8.4475 -4 9 C-4.99 8.67 -5.98 8.34 -7 8 C-6.01 7.67 -5.02 7.34 -4 7 C-4 6.34 -4 5.68 -4 5 C-3.02149805 3.97895449 -2.02019573 2.9793879 -1 2 C-0.67 1.34 -0.34 0.68 0 0 Z " fill="#FB2134" transform="translate(100,555)"/>
<path d="M0 0 C4.97093824 0.41153737 9.44508386 0.79600832 14 3 C14 3.33 14 3.66 14 4 C9.02906176 3.58846263 4.55491614 3.20399168 0 1 C0 0.67 0 0.34 0 0 Z " fill="#FD2337" transform="translate(71,502)"/>
<path d="M0 0 C0.66 0 1.32 0 2 0 C1.88512252 1.58409994 1.75765492 3.16728963 1.625 4.75 C1.52058594 6.07257813 1.52058594 6.07257813 1.4140625 7.421875 C1.00149945 9.99066382 0.28839043 11.75841015 -1 14 C-1.18451025 4.58997722 -1.18451025 4.58997722 0 0 Z " fill="#FD2738" transform="translate(103,432)"/>
<path d="M0 0 C0.33 0.99 0.66 1.98 1 3 C-5.93 2.505 -5.93 2.505 -13 2 C-13 1.67 -13 1.34 -13 1 C-8.62426048 0.40667939 -4.42471556 -0.13827236 0 0 Z " fill="#FE2639" transform="translate(285,445)"/>
<path d="M0 0 C0.66 0.66 1.32 1.32 2 2 C1.64700993 5.44165321 0.95418308 7.06872538 -1 10 C-1.99 9.67 -2.98 9.34 -4 9 C-3.2884375 7.88625 -3.2884375 7.88625 -2.5625 6.75 C-1.22130673 4.38949985 -0.487688 2.63351523 0 0 Z " fill="#FC2438" transform="translate(295,546)"/>
<path d="M0 0 C-1.97420135 2.52259061 -2.96745642 2.9929808 -6.1875 3.6875 C-7.5796875 3.8421875 -7.5796875 3.8421875 -9 4 C-8.67 3.01 -8.34 2.02 -8 1 C-5.07175348 0.02391783 -3.04386724 -0.08226668 0 0 Z " fill="#FE2237" transform="translate(89,481)"/>
<path d="M0 0 C3 1 3 1 4.75 3.8125 C5.98589446 6.96403086 6.28222189 7.96929372 5 11 C4.67 11 4.34 11 4 11 C3.71125 10.113125 3.4225 9.22625 3.125 8.3125 C2.16851252 5.49617576 1.13201054 2.74916844 0 0 Z " fill="#FC2437" transform="translate(771,449)"/>
<path d="M0 0 C0.33 0 0.66 0 1 0 C0.67 2.31 0.34 4.62 0 7 C-1.98 7.33 -3.96 7.66 -6 8 C-6 7.34 -6 6.68 -6 6 C-5.195625 5.525625 -4.39125 5.05125 -3.5625 4.5625 C-0.7081924 3.20016328 -0.7081924 3.20016328 0 0 Z " fill="#FD2338" transform="translate(96,473)"/>
<path d="M0 0 C2.31 0 4.62 0 7 0 C7 0.66 7 1.32 7 2 C7.99 2.33 8.98 2.66 10 3 C6.7 2.67 3.4 2.34 0 2 C0 1.34 0 0.68 0 0 Z " fill="#FD2439" transform="translate(60,499)"/>
<path d="M0 0 C0 0.66 0 1.32 0 2 C-2.64 2.66 -5.28 3.32 -8 4 C-8 3.01 -8 2.02 -8 1 C-5.07175348 0.02391783 -3.04386724 -0.08226668 0 0 Z " fill="#FE2136" transform="translate(199,447)"/>
<path d="M0 0 C0 0.66 0 1.32 0 2 C-3.4019487 4.09350689 -6.05272412 4.17942163 -10 4 C-4 0 -4 0 0 0 Z " fill="#FE2034" transform="translate(192,440)"/>
<path d="M0 0 C-1 3 -1 3 -2.75 4.1875 C-5.29960574 5.10819096 -7.30923081 5.14948718 -10 5 C-2.5 0 -2.5 0 0 0 Z " fill="#FC1E30" transform="translate(584,555)"/>
<path d="M0 0 C0.33 0 0.66 0 1 0 C0.67 2.97 0.34 5.94 0 9 C-0.66 9 -1.32 9 -2 9 C-1.125 2.25 -1.125 2.25 0 0 Z " fill="#FD1F33" transform="translate(146,427)"/>
<path d="M0 0 C0.66 0 1.32 0 2 0 C1.67 0.99 1.34 1.98 1 3 C0.67 2.01 0.34 1.02 0 0 Z " fill="#FF3E53" transform="translate(657,517)"/>
<path d="M0 0 C1 4 1 4 1 4 Z " fill="#FC3D52" transform="translate(911,492)"/>
<path d="M0 0 C1 4 1 4 1 4 Z " fill="#FC3D51" transform="translate(911,474)"/>
<path d="" fill="#FD3C52" transform="translate(0,0)"/>
<path d="" fill="#FD3C51" transform="translate(0,0)"/>
<path d="" fill="#FF4055" transform="translate(0,0)"/>
<path d="M0 0 C2 1 2 1 2 1 Z " fill="#FA3E52" transform="translate(645,496)"/>
<path d="" fill="#FF3D54" transform="translate(0,0)"/>
<path d="" fill="#FF3A50" transform="translate(0,0)"/>
<path d="" fill="#FC3C52" transform="translate(0,0)"/>
<path d="" fill="#898A8A" transform="translate(0,0)"/>
<path d="" fill="#F74C5C" transform="translate(0,0)"/>
<path d="" fill="#F44C5F" transform="translate(0,0)"/>
<path d="" fill="#F64A5D" transform="translate(0,0)"/>
<path d="" fill="#F5465A" transform="translate(0,0)"/>
<path d="" fill="#F64B5D" transform="translate(0,0)"/>
<path d="" fill="#FB3E54" transform="translate(0,0)"/>
<path d="" fill="#FF3C53" transform="translate(0,0)"/>
<path d="" fill="#FC3C54" transform="translate(0,0)"/>
<path d="" fill="#FF3E54" transform="translate(0,0)"/>
<path d="" fill="#FD3E56" transform="translate(0,0)"/>
<path d="" fill="#FE3F51" transform="translate(0,0)"/>
<path d="" fill="#FC3C51" transform="translate(0,0)"/>
<path d="" fill="#FC3C50" transform="translate(0,0)"/>
<path d="" fill="#FD3D52" transform="translate(0,0)"/>
<path d="" fill="#FE3C52" transform="translate(0,0)"/>
<path d="" fill="#FA4458" transform="translate(0,0)"/>
<path d="" fill="#FD3A51" transform="translate(0,0)"/>
<path d="" fill="#FE3A50" transform="translate(0,0)"/>
<path d="" fill="#FE3B52" transform="translate(0,0)"/>
<path d="" fill="#FE3C51" transform="translate(0,0)"/>
<path d="" fill="#FF3E53" transform="translate(0,0)"/>
<path d="" fill="#FF3B50" transform="translate(0,0)"/>
<path d="" fill="#FE3C51" transform="translate(0,0)"/>
<path d="" fill="#FE3C50" transform="translate(0,0)"/>
<path d="" fill="#FE3C4F" transform="translate(0,0)"/>
<path d="" fill="#FF3C52" transform="translate(0,0)"/>
<path d="" fill="#FC3D53" transform="translate(0,0)"/>
<path d="" fill="#FC4154" transform="translate(0,0)"/>
<path d="" fill="#FD4155" transform="translate(0,0)"/>
<path d="" fill="#FE3B52" transform="translate(0,0)"/>
<path d="" fill="#FF3F55" transform="translate(0,0)"/>
<path d="" fill="#FE3D53" transform="translate(0,0)"/>
<path d="" fill="#FE3C51" transform="translate(0,0)"/>
<path d="" fill="#FE3B52" transform="translate(0,0)"/>
<path d="" fill="#FF3C53" transform="translate(0,0)"/>
<path d="" fill="#FF3A51" transform="translate(0,0)"/>
<path d="" fill="#FD3C51" transform="translate(0,0)"/>
<path d="" fill="#FF3F52" transform="translate(0,0)"/>
<path d="" fill="#FF3C53" transform="translate(0,0)"/>
<path d="" fill="#FC4257" transform="translate(0,0)"/>
<path d="" fill="#FC3C51" transform="translate(0,0)"/>
<path d="" fill="#FC3B50" transform="translate(0,0)"/>
<path d="" fill="#FE3E52" transform="translate(0,0)"/>
<path d="" fill="#FF3D52" transform="translate(0,0)"/>
<path d="" fill="#FF3B53" transform="translate(0,0)"/>
<path d="" fill="#FF3C52" transform="translate(0,0)"/>
<path d="" fill="#FE3C52" transform="translate(0,0)"/>
<path d="" fill="#FA3C51" transform="translate(0,0)"/>
<path d="" fill="#FD3D53" transform="translate(0,0)"/>
<path d="" fill="#FD3C53" transform="translate(0,0)"/>
<path d="" fill="#FF3E55" transform="translate(0,0)"/>
<path d="" fill="#FB4053" transform="translate(0,0)"/>
<path d="" fill="#F83F53" transform="translate(0,0)"/>
<path d="" fill="#FA3D52" transform="translate(0,0)"/>
<path d="" fill="#FD3F52" transform="translate(0,0)"/>
<path d="" fill="#F8475A" transform="translate(0,0)"/>
<path d="" fill="#FE4457" transform="translate(0,0)"/>
<path d="" fill="#F44E5D" transform="translate(0,0)"/>
<path d="" fill="#F24F5C" transform="translate(0,0)"/>
<path d="" fill="#F94757" transform="translate(0,0)"/>
<path d="" fill="#EC5365" transform="translate(0,0)"/>
</svg>
