<?xml version="1.0" encoding="UTF-8"?>
<svg version="1.1" xmlns="http://www.w3.org/2000/svg" width="194" height="241">
<path d="M0 0 C0.43238247 7.0164592 -1.11523653 12.66981749 -3.24609375 19.32421875 C-3.57666275 20.388647 -3.90723175 21.45307526 -4.24781799 22.54975891 C-5.30046391 25.9324204 -6.36835444 29.31002125 -7.4375 32.6875 C-8.49999985 36.07657865 -9.55932075 39.46662493 -10.61647034 42.8573761 C-11.27376764 44.96206724 -11.93470571 47.06562568 -12.59971619 49.16789246 C-12.89995193 50.12271011 -13.20018768 51.07752777 -13.50952148 52.0612793 C-13.77377426 52.89652634 -14.03802704 53.73177338 -14.31028748 54.59233093 C-15.01305008 57.04555562 -15.53434628 59.49191776 -16 62 C-15.12190674 61.68885254 -14.24381348 61.37770508 -13.33911133 61.05712891 C-7.62246337 59.03258336 -1.90580221 57.00818433 3.81567383 54.99731445 C4.59042557 54.72499496 5.36517731 54.45267548 6.16340637 54.17210388 C7.75158305 53.61388453 9.33978938 53.05574955 10.92802429 52.49769592 C15.43629157 50.91107086 19.93717547 49.30591126 24.43070984 47.67803955 C26.42566732 46.95697814 28.42287492 46.24259278 30.42114258 45.53076172 C32.88364553 44.65251635 35.34205232 43.76267724 37.7956543 42.85986328 C48.20543164 39.18068186 48.20543164 39.18068186 54 41 C54.66 41.66 55.32 42.32 56 43 C55.69118798 48.58567916 54.46039906 52.97064987 52.25390625 58.14453125 C51.97136993 58.81524155 51.68883362 59.48595184 51.3977356 60.17698669 C50.46186859 62.39285676 49.51214545 64.60250418 48.5625 66.8125 C47.89389659 68.38920717 47.22635927 69.96636678 46.55981445 71.54394531 C45.13248835 74.91936591 43.70017628 78.29261055 42.26464844 81.66455078 C38.75550208 89.91810717 35.3062661 98.19678441 31.84915161 106.472229 C30.69327845 109.23618241 29.53452062 111.99890796 28.37475586 114.76123047 C25.1408464 122.46631901 21.91423536 130.17279533 18.77734375 137.91796875 C18.3181958 139.04493164 17.85904785 140.17189453 17.38598633 141.33300781 C16.57900705 143.31975486 15.7798978 145.30972818 14.9909668 147.30371094 C11.78200588 155.1826353 11.78200588 155.1826353 8 158 C5 158.5625 5 158.5625 2 158 C-2.65947026 153.65648402 -3.61876353 148.15076389 -5.0859375 142.1875 C-5.3513736 141.14102295 -5.61680969 140.0945459 -5.89028931 139.01635742 C-6.44616464 136.80906802 -6.99545582 134.60011135 -7.53857422 132.38964844 C-8.37333598 129.0067435 -9.23797119 125.63245172 -10.10546875 122.2578125 C-10.64244459 120.10982906 -11.17766116 117.9614049 -11.7109375 115.8125 C-12.10132706 114.29982544 -12.10132706 114.29982544 -12.49960327 112.7565918 C-12.84083725 111.33987183 -12.84083725 111.33987183 -13.18896484 109.89453125 C-13.49729752 108.65473511 -13.49729752 108.65473511 -13.81185913 107.38989258 C-14.04639051 104.4107163 -13.33333664 102.64760588 -12 100 C-10.44140625 98.62890625 -10.44140625 98.62890625 -8.5625 97.5625 C-7.86253906 97.15773438 -7.16257812 96.75296875 -6.44140625 96.3359375 C-5.63574219 95.89507812 -4.83007812 95.45421875 -4 95 C-3.01902344 94.45601563 -2.03804688 93.91203125 -1.02734375 93.3515625 C1.64028105 91.88522938 4.31585815 90.43581852 7 89 C7 87.68 7 86.36 7 85 C-0.63725087 87.71831186 -8.23320754 90.49847136 -15.6875 93.6875 C-16.66783203 94.05166016 -17.64816406 94.41582031 -18.65820312 94.79101562 C-27.95396256 98.88164787 -30.48163425 105.69348905 -34.04043579 114.6210022 C-35.31732341 117.78672348 -36.70601607 120.89766967 -38.09587097 124.01506042 C-39.13862868 126.35489548 -40.16908955 128.69974531 -41.1953125 131.046875 C-41.53336914 131.81966797 -41.87142578 132.59246094 -42.21972656 133.38867188 C-42.91559605 134.98356516 -43.60955979 136.5792911 -44.30175781 138.17578125 C-45.32460997 140.53167144 -46.35685058 142.88326112 -47.390625 145.234375 C-47.69486389 145.9426947 -47.99910278 146.6510144 -48.31256104 147.38079834 C-50.58657198 152.5246058 -52.99907496 156.63573293 -57.75 159.875 C-62.12195143 161.3883678 -64.49214098 161.0345906 -69 160 C-71.16418241 158.40020166 -71.90641553 157.56877848 -72.34680176 154.89224243 C-72.18188727 148.6244631 -71.50779754 142.57934887 -70.46875 136.3984375 C-70.31337769 135.435961 -70.15800537 134.4734845 -69.9979248 133.48184204 C-69.50596915 130.44497617 -69.00318383 127.41002344 -68.5 124.375 C-68.1620391 122.30089865 -67.8247928 120.22668074 -67.48828125 118.15234375 C-66.6671027 113.10017831 -65.83621516 108.04969748 -65 103 C-66.58675537 102.60385498 -66.58675537 102.60385498 -68.20556641 102.19970703 C-71.82469223 101.29587774 -75.44350941 100.39082012 -79.06213379 99.48498535 C-80.60608711 99.09858368 -82.15018659 98.71276602 -83.69433594 98.32714844 C-85.5898481 97.85082199 -87.48258777 97.36349687 -89.375 96.875 C-91.21191406 96.40707031 -91.21191406 96.40707031 -93.0859375 95.9296875 C-96 95 -96 95 -98 93 C-98.4375 90.625 -98.4375 90.625 -98 88 C-94.25653931 84.34347213 -90.28481222 82.84926502 -85.36328125 81.4140625 C-83.88453178 80.95387577 -82.40602292 80.49291527 -80.92773438 80.03125 C-78.61303395 79.32183878 -76.29659861 78.62028921 -73.9753418 77.93261719 C-71.72248193 77.26020688 -69.48061824 76.55814554 -67.23828125 75.8515625 C-66.54245438 75.65446686 -65.8466275 75.45737122 -65.12971497 75.25430298 C-62.91476293 74.60143482 -62.91476293 74.60143482 -60 73 C-58.49199413 70.35442357 -58.49199413 70.35442357 -58 67 C-57.8569191 66.33468262 -57.7138382 65.66936523 -57.56642151 64.98388672 C-57.07356347 62.65519605 -56.631655 60.32038249 -56.1953125 57.98046875 C-55.85586613 56.21802238 -55.51600945 54.45565499 -55.17578125 52.69335938 C-54.64913955 49.94281999 -54.12580172 47.19177724 -53.60986328 44.43920898 C-53.10644174 41.76349227 -52.5893043 39.09070303 -52.0703125 36.41796875 C-51.84820602 35.20345284 -51.84820602 35.20345284 -51.62161255 33.96440125 C-50.2144826 26.80270744 -48.45175041 19.4653275 -42.375 14.9375 C-35.6536685 10.93140838 -28.30865567 7.99794421 -21.12939453 4.92089844 C-17.41297993 3.31366204 -13.74239114 1.60720718 -10.06640625 -0.08984375 C-5.7879723 -1.97429575 -4.22168871 -1.93969481 0 0 Z M8 85 C9 88 9 88 9 88 Z " fill="#FE2D45" transform="translate(125,52)"/>
<path d="M0 0 C2 2 2 2 2.09521484 3.8972168 C1.27419138 11.3846106 -0.45408593 18.53763328 -2.375 25.8125 C-2.67921875 27.01326172 -2.9834375 28.21402344 -3.296875 29.45117188 C-3.59851563 30.60810547 -3.90015625 31.76503906 -4.2109375 32.95703125 C-4.48212402 33.99835205 -4.75331055 35.03967285 -5.03271484 36.11254883 C-6.64225892 40.91721257 -7.66199565 43.31810485 -12.30639648 45.68505859 C-13.65455685 46.19117829 -15.01007316 46.67799466 -16.37109375 47.1484375 C-17.44920067 47.54091171 -17.44920067 47.54091171 -18.54908752 47.9413147 C-20.06499718 48.48885132 -21.58397846 49.02794856 -23.10571289 49.55908203 C-25.43351241 50.3736047 -27.74894363 51.2176564 -30.06445312 52.06640625 C-31.54102894 52.59553302 -33.01822374 53.1229363 -34.49609375 53.6484375 C-35.18787216 53.90039886 -35.87965057 54.15236023 -36.59239197 54.41195679 C-42.54135049 56.46155656 -42.54135049 56.46155656 -46 55 C-45.35374727 47.03816638 -43.61114028 39.49295459 -41.6875 31.75 C-41.39166016 30.49703125 -41.09582031 29.2440625 -40.79101562 27.953125 C-40.49259766 26.7465625 -40.19417969 25.54 -39.88671875 24.296875 C-39.62076904 23.20729492 -39.35481934 22.11771484 -39.08081055 20.99511719 C-37.48294349 16.56714497 -35.47334539 13.88339328 -31.42211914 11.4543457 C-30.46942139 11.03241943 -29.51672363 10.61049316 -28.53515625 10.17578125 C-27.48779297 9.70462891 -26.44042969 9.23347656 -25.36132812 8.74804688 C-23.7284082 8.03745117 -23.7284082 8.03745117 -22.0625 7.3125 C-20.97775391 6.82716797 -19.89300781 6.34183594 -18.77539062 5.84179688 C-4.5594313 -0.49291149 -4.5594313 -0.49291149 0 0 Z " fill="#FE2D46" transform="translate(174,45)"/>
<path d="M0 0 C6.75 0.75 6.75 0.75 9 3 C8.70297582 8.69683983 7.31889507 13.41047139 5.04296875 18.63671875 C4.74357391 19.34679581 4.44417908 20.05687286 4.13571167 20.78846741 C3.16211803 23.09214691 2.17487653 25.38969886 1.1875 27.6875 C0.51056866 29.28307566 -0.16528305 30.87910977 -0.84008789 32.47558594 C-2.21475407 35.72609037 -3.59374252 38.97470878 -4.97558594 42.22216797 C-7.74456131 48.74201435 -10.4491698 55.2882621 -13.14877319 61.83706665 C-14.3977455 64.86625339 -15.65034023 67.89393995 -16.90234375 70.921875 C-17.60163231 72.61455449 -18.300881 74.30725047 -19 76 C-19.66 76 -20.32 76 -21 76 C-20.12273046 71.05538988 -19.09865027 66.88558685 -16.75 62.4375 C-14.32738767 57.82964945 -12.5113399 53.14233142 -10.73461914 48.25341797 C-7.91759941 40.60935879 -4.80009989 33.08949493 -1.6875 25.5625 C-1.41493378 24.90059662 -1.14236755 24.23869324 -0.86154175 23.55673218 C-0.08115062 21.66291451 0.70287596 19.77064912 1.48828125 17.87890625 C1.94759033 16.7710376 2.40689941 15.66316895 2.88012695 14.52172852 C4 12 4 12 5 11 C5.36760731 8.67182036 5.70241581 6.3381615 6 4 C3.525 3.505 3.525 3.505 1 3 C0.67 2.01 0.34 1.02 0 0 Z " fill="#FD2135" transform="translate(172,92)"/>
<path d="M0 0 C-0.0625 2.25 -0.0625 2.25 -1 5 C-3.65742095 7.0898813 -6.53550551 9 -10 9 C-10 9.66 -10 10.32 -10 11 C-13.96 12.98 -17.92 14.96 -22 17 C-22.15364051 21.30193437 -22.12658329 25.0223153 -21 29.1875 C-20.16299385 32.37858593 -19.79675013 34.74800211 -20 38 C-20.66 37.67 -21.32 37.34 -22 37 C-22.86370713 34.24323615 -23.59146569 31.55572718 -24.25 28.75 C-24.44851562 27.98558594 -24.64703125 27.22117188 -24.8515625 26.43359375 C-25.67705429 22.97011732 -26.1430626 20.61277101 -25.32421875 17.10546875 C-23.89689485 14.83606586 -22.87768271 13.87652262 -20.5625 12.5625 C-19.86253906 12.15773437 -19.16257812 11.75296875 -18.44140625 11.3359375 C-17.63574219 10.89507812 -16.83007812 10.45421875 -16 10 C-15.01902344 9.45601562 -14.03804687 8.91203125 -13.02734375 8.3515625 C-10.35971895 6.88522938 -7.68414185 5.43581852 -5 4 C-5 2.68 -5 1.36 -5 0 C-6.65 0 -8.3 0 -10 0 C-9 -2 -9 -2 -7.25 -2.8125 C-4.09588007 -3.07534333 -2.53926999 -1.76338194 0 0 Z M-4 0 C-3 3 -3 3 -3 3 Z " fill="#FD2437" transform="translate(137,137)"/>
<path d="M0 0 C2 3 2 3 1.63208008 5.73974609 C1.34743896 6.82336426 1.06279785 7.90698242 0.76953125 9.0234375 C0.46080078 10.209375 0.15207031 11.3953125 -0.16601562 12.6171875 C-0.50310547 13.85726562 -0.84019531 15.09734375 -1.1875 16.375 C-1.50525391 17.60734375 -1.82300781 18.8396875 -2.15039062 20.109375 C-4.93232445 30.59993938 -4.93232445 30.59993938 -8 35 C-11.68250477 37.09007028 -14.81863255 37.19448221 -19 37 C-16 35 -16 35 -12.4375 33.6875 C-8.92201129 32.38681639 -8.92201129 32.38681639 -7.875 29.8046875 C-6.90690891 26.70160981 -6.20423433 23.62441795 -5.5625 20.4375 C-1.66053595 1.66053595 -1.66053595 1.66053595 0 0 Z " fill="#FD2235" transform="translate(173,54)"/>
<path d="M0 0 C1.32 0 2.64 0 4 0 C4 0.66 4 1.32 4 2 C3.29875 2.16371094 2.5975 2.32742187 1.875 2.49609375 C-3.27148476 4.18128781 -6.71645246 6.00452274 -9.37109375 10.80078125 C-11.15470854 14.4573555 -12.71342275 18.20085968 -14.20263672 21.98583984 C-15.21798424 24.55063379 -16.35208859 27.05469354 -17.5 29.5625 C-17.995 30.696875 -18.49 31.83125 -19 33 C-19.66 33 -20.32 33 -21 33 C-20.46501783 28.85388816 -18.97777276 25.42387515 -17.2265625 21.67578125 C-16.31848552 19.69478528 -15.46756185 17.68737068 -14.6484375 15.66796875 C-10.43090237 5.62031153 -10.43090237 5.62031153 -6.3125 3.1875 C-3 2 -3 2 0 2 C0 1.34 0 0.68 0 0 Z " fill="#FD2234" transform="translate(105,145)"/>
<path d="M0 0 C0.66 0 1.32 0 2 0 C1.85904936 1.6254308 1.71207913 3.25034051 1.5625 4.875 C1.48128906 5.77992187 1.40007812 6.68484375 1.31640625 7.6171875 C1 10 1 10 0 12 C0.76183594 11.67386719 1.52367187 11.34773438 2.30859375 11.01171875 C18.87610619 4 18.87610619 4 23 4 C23 4.66 23 5.32 23 6 C20.12882484 7.15558273 17.25246071 8.29766867 14.375 9.4375 C13.16263672 9.92573242 13.16263672 9.92573242 11.92578125 10.42382812 C7.64385419 12.11223026 3.62992223 13.5983506 -1 14 C-1.33 13.67 -1.66 13.34 -2 13 C-1.9140625 11.07421875 -1.9140625 11.07421875 -1.625 8.6875 C-1.53476563 7.90761719 -1.44453125 7.12773438 -1.3515625 6.32421875 C-1.02512033 4.16607328 -0.56860512 2.10576641 0 0 Z " fill="#FD2337" transform="translate(130,87)"/>
<path d="M0 0 C0.66 0 1.32 0 2 0 C1.0595069 12.35015945 -0.27080953 25.14117429 -4 37 C-4.99 37.495 -4.99 37.495 -6 38 C-6.13578996 32.97860058 -5.66791233 28.45764314 -4.6875 23.53515625 C-4.55432373 22.85698349 -4.42114746 22.17881073 -4.28393555 21.48008728 C-3.86213836 19.33961173 -3.4312395 17.20109097 -3 15.0625 C-2.71033083 13.60103157 -2.42126262 12.1394439 -2.1328125 10.67773438 C-1.42881251 7.11708534 -0.71664472 3.55812831 0 0 Z " fill="#FD2335" transform="translate(75,79)"/>
<path d="M0 0 C1.17849222 2.85286947 0.98881091 4.03425016 0.01196289 7.02441406 C-0.7499939 8.75256348 -0.7499939 8.75256348 -1.52734375 10.515625 C-1.79511124 11.13145447 -2.06287872 11.74728394 -2.33876038 12.3817749 C-3.19433425 14.3427341 -4.0656147 16.29624656 -4.9375 18.25 C-5.52123235 19.58026889 -6.10392711 20.91099359 -6.68554688 22.2421875 C-8.11170734 25.50016196 -9.55203469 28.75164784 -11 32 C-11.66 32 -12.32 32 -13 32 C-11.44082967 24.20414833 -8.20874757 17.24213511 -5 10 C-4.47739418 8.75149889 -3.95525186 7.50280364 -3.43359375 6.25390625 C-2 3 -2 3 0 0 Z " fill="#FD2032" transform="translate(150,169)"/>
<path d="M0 0 C0 0.66 0 1.32 0 2 C-2.31 2.66 -4.62 3.32 -7 4 C-7.11069824 4.54938232 -7.22139648 5.09876465 -7.33544922 5.66479492 C-7.84377727 8.17337533 -8.35932071 10.68042089 -8.875 13.1875 C-9.04902344 14.05181641 -9.22304687 14.91613281 -9.40234375 15.80664062 C-10.28084269 20.05271884 -11.17814954 24.03624428 -13 28 C-13.33 28 -13.66 28 -14 28 C-13.65110546 19.29508129 -13.06119609 8.04128826 -6.609375 1.62109375 C-4 0 -4 0 0 0 Z " fill="#FD2235" transform="translate(146,57)"/>
<path d="M0 0 C-0.33 2.31 -0.66 4.62 -1 7 C-1.33 7 -1.66 7 -2 7 C-2 5.02 -2 3.04 -2 1 C-8.94006616 2.15667769 -14.32083611 4.48786337 -20.49609375 7.85546875 C-21.32238281 8.23316406 -22.14867188 8.61085938 -23 9 C-23.66 8.67 -24.32 8.34 -25 8 C-7.34711614 -3.88174875 -7.34711614 -3.88174875 0 0 Z " fill="#FB2133" transform="translate(125,52)"/>
<path d="M0 0 C0.66 0 1.32 0 2 0 C1.39970545 7.50368189 -0.24103125 14.9884139 -3 22 C-3.99 22.33 -4.98 22.66 -6 23 C-5.37650642 20.47878568 -4.75124639 17.95803069 -4.125 15.4375 C-3.86396484 14.38079102 -3.86396484 14.38079102 -3.59765625 13.30273438 C-2.48705185 8.83975002 -1.28798784 4.41512948 0 0 Z " fill="#FD2133" transform="translate(112,91)"/>
<path d="M0 0 C-2.60817606 3.2278491 -5.466831 4.02041521 -9.375 5.1875 C-10.49648438 5.53167969 -11.61796875 5.87585938 -12.7734375 6.23046875 C-15.67457571 6.9223867 -18.03890942 7.16080829 -21 7 C-19.60244372 4.20488743 -17.66081879 4.00177006 -14.82421875 3.046875 C-13.79748047 2.71429688 -13.79748047 2.71429688 -12.75 2.375 C-11.74646484 2.03082031 -11.74646484 2.03082031 -10.72265625 1.6796875 C-7.04644695 0.46632176 -3.87485263 -0.28535736 0 0 Z " fill="#FD2539" transform="translate(61,128)"/>
<path d="M0 0 C0 0.66 0 1.32 0 2 C-0.64066406 2.18175781 -1.28132813 2.36351563 -1.94140625 2.55078125 C-5.9759493 3.72326396 -9.92236487 4.87891026 -13.75 6.625 C-16.88898572 7.95303242 -19.63029353 8.58906019 -23 9 C-23 8.34 -23 7.68 -23 7 C-19.92064034 5.8226504 -16.83592484 4.66002109 -13.75 3.5 C-12.87730469 3.16613281 -12.00460938 2.83226563 -11.10546875 2.48828125 C-10.26113281 2.17246094 -9.41679688 1.85664062 -8.546875 1.53125 C-7.77182617 1.23798828 -6.99677734 0.94472656 -6.19824219 0.64257812 C-4 0 -4 0 0 0 Z " fill="#FD2135" transform="translate(130,108)"/>
<path d="M0 0 C0.66 0 1.32 0 2 0 C1.4560915 5.47361889 -0.55393801 9.58317001 -3.0625 14.375 C-3.43955078 15.11105469 -3.81660156 15.84710938 -4.20507812 16.60546875 C-5.12944364 18.40739646 -6.06372614 20.20423099 -7 22 C-8.17037635 18.48887096 -7.86295634 18.1133418 -6.3125 14.9375 C-3.99812789 10.03457929 -1.98033883 5.04565052 0 0 Z " fill="#FC2034" transform="translate(82,179)"/>
<path d="M0 0 C0 0.66 0 1.32 0 2 C-1.89332534 2.81832722 -3.78977733 3.62942268 -5.6875 4.4375 C-6.74324219 4.88996094 -7.79898438 5.34242187 -8.88671875 5.80859375 C-11.61972529 6.85447455 -14.12042337 7.53520748 -17 8 C-17 7.34 -17 6.68 -17 6 C-14.921188 4.99063464 -12.8367638 3.99282154 -10.75 3 C-9.58984375 2.443125 -8.4296875 1.88625 -7.234375 1.3125 C-4 0 -4 0 0 0 Z " fill="#FC2233" transform="translate(164,49)"/>
<path d="M0 0 C6.14154225 0.58490879 12.00679849 1.54066252 18 3 C18 3.66 18 4.32 18 5 C11.44074057 4.61020794 6.05473373 3.57886807 0 1 C0 0.67 0 0.34 0 0 Z " fill="#FD2136" transform="translate(43,149)"/>
<path d="M0 0 C0.75 1.75 0.75 1.75 1 4 C-0.5625 6.25 -0.5625 6.25 -3 8 C-6.25 8.25 -6.25 8.25 -9 8 C-9.66 6.68 -10.32 5.36 -11 4 C-8.03 4.33 -5.06 4.66 -2 5 C-1.34 3.35 -0.68 1.7 0 0 Z " fill="#F82236" transform="translate(136,202)"/>
<path d="M0 0 C0 0.66 0 1.32 0 2 C-9.41002278 5.44419134 -9.41002278 5.44419134 -14 5 C-14 4.34 -14 3.68 -14 3 C-9.07015675 0.96006486 -5.42039575 -0.40652968 0 0 Z " fill="#FD2134" transform="translate(157,99)"/>
<path d="M0 0 C0.66 0 1.32 0 2 0 C1.70902736 3.49167166 1.24460417 4.76200675 -1.3125 7.25 C-5.24380165 9.80991736 -5.24380165 9.80991736 -8 10 C-8.66 9.34 -9.32 8.68 -10 8 C-8.02 7.67 -6.04 7.34 -4 7 C-4 6.34 -4 5.68 -4 5 C-3.02149805 3.97895449 -2.02019573 2.9793879 -1 2 C-0.67 1.34 -0.34 0.68 0 0 Z " fill="#FB2135" transform="translate(72,202)"/>
<path d="M0 0 C2 2 2 2 2.125 5.125 C2.08375 6.07375 2.0425 7.0225 2 8 C1.34 8 0.68 8 0 8 C0 6.35 0 4.7 0 3 C-2.64 3 -5.28 3 -8 3 C-8 2.34 -8 1.68 -8 1 C-5.03104944 0.01034981 -3.0913386 -0.23779528 0 0 Z " fill="#FB2537" transform="translate(174,45)"/>
<path d="M0 0 C0.33 0 0.66 0 1 0 C1.20190089 6.35987804 0.6277833 11.85221129 -1 18 C-1.33 18 -1.66 18 -2 18 C-2.20852314 11.59370576 -2.1583195 6.07027358 0 0 Z " fill="#FD1E32" transform="translate(61,155)"/>
<path d="M0 0 C0 0.66 0 1.32 0 2 C-1.60064843 2.53154742 -3.20568874 3.04988353 -4.8125 3.5625 C-5.70582031 3.85253906 -6.59914062 4.14257812 -7.51953125 4.44140625 C-10 5 -10 5 -13 4 C-8.4847676 1.19323391 -5.34703211 -0.14451438 0 0 Z " fill="#FE2135" transform="translate(171,94)"/>
<path d="M0 0 C0.66 0 1.32 0 2 0 C1.85769192 1.41702513 1.71099254 2.8336096 1.5625 4.25 C1.48128906 5.03890625 1.40007812 5.8278125 1.31640625 6.640625 C1.02365007 8.82364639 0.57935581 10.8773182 0 13 C-0.66 13 -1.32 13 -2 13 C-1.85769192 11.58297487 -1.71099254 10.1663904 -1.5625 8.75 C-1.48128906 7.96109375 -1.40007812 7.1721875 -1.31640625 6.359375 C-1.02365007 4.17635361 -0.57935581 2.1226818 0 0 Z " fill="#FD2033" transform="translate(121,60)"/>
<path d="M0 0 C0 0.66 0 1.32 0 2 C-0.94875 2.598125 -1.8975 3.19625 -2.875 3.8125 C-6.14949697 6.10464788 -6.95605637 7.24180292 -8 11 C-8.33 11 -8.66 11 -9 11 C-8.75675684 6.7837853 -8.62862242 4.64516511 -5.625 1.5625 C-3 0 -3 0 0 0 Z " fill="#FD2234" transform="translate(86,67)"/>
<path d="M0 0 C-2.77079887 3.80984844 -6.62868145 4.06840752 -11 5 C-11 4.01 -11 3.02 -11 2 C-7.17679443 0.57741188 -4.08718695 -0.24042276 0 0 Z " fill="#FD2135" transform="translate(142,104)"/>
<path d="M0 0 C0.66 0.66 1.32 1.32 2 2 C1.7578125 5.2578125 1.7578125 5.2578125 1.125 9.125 C0.92132813 10.40632812 0.71765625 11.68765625 0.5078125 13.0078125 C0.34023438 13.99523437 0.17265625 14.98265625 0 16 C-0.33 16 -0.66 16 -1 16 C-1.02685095 13.52076199 -1.04676547 11.0418116 -1.0625 8.5625 C-1.07506836 7.50192383 -1.07506836 7.50192383 -1.08789062 6.41992188 C-1.09653588 4.61306441 -1.05220011 2.80612397 -1 1 C-0.67 0.67 -0.34 0.34 0 0 Z " fill="#FD1F33" transform="translate(55,192)"/>
<path d="M0 0 C0.8971875 0.309375 0.8971875 0.309375 1.8125 0.625 C0.38238027 1.49146667 -1.05690619 2.34281829 -2.5 3.1875 C-3.70076172 3.90099609 -3.70076172 3.90099609 -4.92578125 4.62890625 C-7.1875 5.625 -7.1875 5.625 -10.1875 4.625 C-9.424375 4.17125 -8.66125 3.7175 -7.875 3.25 C-1.94777397 -0.33390411 -1.94777397 -0.33390411 0 0 Z " fill="#FD2135" transform="translate(124.1875,137.375)"/>
<path d="M0 0 C-2.97180943 1.89865603 -5.51460083 3.35455571 -9 4 C-9 3.01 -9 2.02 -9 1 C-5.57367167 -0.61798838 -3.61944899 -1.34053666 0 0 Z " fill="#FD2238" transform="translate(97,63)"/>
<path d="M0 0 C0.33 0 0.66 0 1 0 C0.67 2.31 0.34 4.62 0 7 C-1.98 7.33 -3.96 7.66 -6 8 C-6 7.34 -6 6.68 -6 6 C-5.195625 5.525625 -4.39125 5.05125 -3.5625 4.5625 C-0.7081924 3.20016328 -0.7081924 3.20016328 0 0 Z " fill="#FD2239" transform="translate(68,120)"/>
<path d="M0 0 C0.66 0 1.32 0 2 0 C1.67 2.64 1.34 5.28 1 8 C0.34 8 -0.32 8 -1 8 C-0.67 5.36 -0.34 2.72 0 0 Z " fill="#FD2134" transform="translate(117,75)"/>
<path d="" fill="#FF0000" transform="translate(0,0)"/>
<path d="" fill="#FF0000" transform="translate(0,0)"/>
<path d="" fill="#FF7F7F" transform="translate(0,0)"/>
<path d="" fill="#FF0000" transform="translate(0,0)"/>
<path d="" fill="#FF7F7F" transform="translate(0,0)"/>
</svg>
